<svg width="1277" height="548" viewBox="0 0 1277 548" fill="none" xmlns="http://www.w3.org/2000/svg">
<g clip-path="url(#clip0_264_881)">
<mask id="mask0_264_881" style="mask-type:luminance" maskUnits="userSpaceOnUse" x="0" y="221" width="1277" height="118">
<path d="M-3.05176e-05 221.021H1277V338.293H-3.05176e-05V221.021Z" fill="white"/>
</mask>
<g mask="url(#mask0_264_881)">
<path d="M873.295 221.141L872.869 221.015H404.197L0.625183 338.293H1276.44L873.295 221.141ZM897.079 229.812H855.218L846.185 226.604H886.039L897.079 229.812ZM610.233 249.757H666.847L668.988 256.612H608.078L610.233 249.757ZM604.66 256.612H543.869L550.307 249.757H606.801L604.66 256.612ZM610.685 248.295L612.441 242.673H664.625L666.381 248.295H610.685ZM670.265 249.757H726.759L733.198 256.612H672.407L670.265 249.757ZM669.441 258.068L672.074 266.516H604.979L607.626 258.068H669.441ZM672.873 258.068H734.568L742.496 266.516H675.506L672.873 258.068ZM738.226 258.068H799.588L812.797 266.516H746.154L738.226 258.068ZM736.856 256.612L730.417 249.757H786.579L797.314 256.612H736.856ZM729.047 248.295L723.78 242.673H775.511L784.291 248.295H729.047ZM725.389 248.295H669.813L668.044 242.673H720.122L725.389 248.295ZM667.592 241.223L666.142 236.576H714.388L718.751 241.223H667.592ZM664.173 241.223H612.893L614.343 236.576H662.71L664.173 241.223ZM609.475 241.223H558.315L562.678 236.576H610.925L609.475 241.223ZM609.023 242.678L607.267 248.301H551.677L556.958 242.678H609.023ZM548.019 248.295H492.776L501.555 242.673H553.3L548.019 248.295ZM546.649 249.757L540.211 256.612H479.766L490.488 249.757H546.649ZM538.841 258.068L530.913 266.516H464.269L477.478 258.068H538.841ZM542.499 258.068H604.194L601.56 266.516H534.571L542.499 258.068ZM601.108 267.978L597.809 278.521H523.317L533.214 267.978H601.108ZM604.526 267.978H672.54L675.839 278.521H601.228L604.526 267.978ZM675.959 267.978H743.853L753.749 278.521H679.258L675.959 267.978ZM747.524 267.978H815.085L831.58 278.521H757.421L747.524 267.978ZM819.169 267.978H886.238L909.317 278.521H835.664L819.169 267.978ZM816.881 266.516L803.672 258.068H864.542L883.032 266.516H816.881ZM801.397 256.612L790.676 249.757H846.332L861.35 256.612H801.397ZM788.388 248.295L779.595 242.673H830.835L843.139 248.295H788.388ZM777.321 241.223L770.058 236.576H817.48L827.642 241.223H777.321ZM773.224 241.223H722.41L718.047 236.576H765.961L773.224 241.223ZM716.676 235.121L713.058 231.267H757.66L763.686 235.121H716.676ZM713.018 235.121H665.689L664.479 231.267H709.4L713.018 235.121ZM662.258 235.121H614.796L616.006 231.267H661.06L662.258 235.121ZM611.377 235.121H564.048L567.666 231.267H612.588L611.377 235.121ZM560.39 235.121H513.381L519.406 231.267H564.008L560.39 235.121ZM559.02 236.576L554.657 241.223H503.83L511.093 236.576H559.02ZM499.746 241.223H449.424L459.587 236.576H507.009L499.746 241.223ZM497.471 242.678L488.679 248.301H433.927L446.245 242.678H497.471ZM486.404 249.757L475.669 256.612H415.717L430.735 249.757H486.404ZM473.395 258.068L460.186 266.516H394.034L412.538 258.068H473.395ZM457.898 267.978L441.403 278.521H367.749L390.829 267.978H457.898ZM461.981 267.978H529.543L519.646 278.521H445.5L461.981 267.978ZM518.289 279.977L505.732 293.363H422.288L443.212 279.977H518.289ZM521.947 279.977H597.357L593.167 293.363H509.39L521.947 279.977ZM600.775 279.977H676.291L680.481 293.363H596.585L600.775 279.977ZM679.71 279.977H755.119L767.69 293.363H683.913L679.71 279.977ZM758.777 279.977H833.854L854.779 293.363H771.348L758.777 279.977ZM837.938 279.977H912.51L941.814 293.363H858.876L837.938 279.977ZM917.179 279.977H991.125L1028.81 293.363H946.483L917.179 279.977ZM913.973 278.521L890.894 267.978H957.324L987.015 278.521H913.973ZM887.701 266.516L869.198 258.068H929.443L953.227 266.516H887.701ZM866.006 256.612L851.001 249.757H906.045L925.346 256.612H866.006ZM847.795 248.295L835.491 242.673H886.105L901.935 248.295H847.795ZM832.298 241.223L822.135 236.576H868.932L881.995 241.223H832.298ZM818.943 235.121L810.509 231.267H853.98L864.822 235.121H818.943ZM814.287 235.121H767.783L761.757 231.267H805.854L814.287 235.121ZM759.469 229.812L754.454 226.604H795.638L802.661 229.812H759.469ZM755.385 229.812H711.701L708.695 226.604H750.371L755.385 229.812ZM708.043 229.812H664.027L663.016 226.604H705.024L708.043 229.812ZM660.608 229.812H616.472L617.469 226.604H659.61L660.608 229.812ZM613.04 229.812H569.023L572.029 226.604H614.037L613.04 229.812ZM565.365 229.812H521.681L526.696 226.604H568.371L565.365 229.812ZM517.597 229.812H474.419L481.442 226.604H522.612L517.597 229.812ZM515.309 231.267L509.284 235.121H462.779L471.213 231.267H515.309ZM458.124 235.121H412.245L423.086 231.267H466.557L458.124 235.121ZM454.931 236.576L444.782 241.223H395.072L408.135 236.576H454.931ZM441.576 242.678L429.272 248.301H375.132L390.962 242.678H441.576ZM426.079 249.757L411.061 256.612H351.734L371.035 249.757H426.079ZM407.868 258.068L389.365 266.516H323.839L347.623 258.068H407.868ZM386.173 267.978L363.094 278.521H290.052L319.729 267.978H386.173ZM359.901 279.977L330.597 293.363H248.27L285.942 279.977H359.901ZM364.557 279.977H439.128L418.204 293.363H335.252L364.557 279.977ZM415.916 294.813L388.753 312.177H294.029L332.06 294.813H415.916ZM420 294.813H504.362L488.067 312.177H392.85L420 294.813ZM508.02 294.813H592.714L587.287 312.177H491.725L508.02 294.813ZM596.133 294.813H680.934L686.361 312.177H590.706L596.133 294.813ZM684.352 294.813H769.047L785.342 312.177H689.793L684.352 294.813ZM772.705 294.813H857.067L884.229 312.177H789L772.705 294.813ZM861.15 294.813H945.007L983.037 312.177H888.313L861.15 294.813ZM949.662 294.813H1032.91L1081.79 312.177H987.693L949.662 294.813ZM1038.23 294.813H1120.77L1180.53 312.177H1087.13L1038.23 294.813ZM1034.13 293.357L996.446 279.971H1069.7L1115.75 293.357H1034.13ZM992.335 278.521L962.659 267.978H1028.4L1064.69 278.521H992.335ZM958.561 266.516L934.777 258.068H994.317L1023.4 266.516H958.561ZM930.667 256.612L911.366 249.757H965.705L989.303 256.612H930.667ZM907.255 248.295L891.426 242.673H941.349L960.69 248.295H907.255ZM887.329 241.223L874.266 236.576H920.358L936.334 241.223H887.329ZM870.156 235.121L859.315 231.267H902.081L915.343 235.121H870.156ZM849.883 229.812H807.317L800.293 226.604H840.851L849.883 229.812ZM797.101 225.148L791.248 222.477H829.225L836.754 225.148H797.101ZM792.445 225.148H752.18L747.99 222.477H786.592L792.445 225.148ZM748.096 225.148H707.325L704.824 222.477H743.906L748.096 225.148ZM703.667 225.148H662.563L661.725 222.477H701.153L703.667 225.148ZM659.145 225.148H617.935L618.76 222.477H658.307L659.145 225.148ZM614.503 225.148H573.4L575.9 222.477H615.341L614.503 225.148ZM569.742 225.148H528.971L533.161 222.477H572.256L569.742 225.148ZM524.887 225.148H484.622L490.474 222.477H529.077L524.887 225.148ZM479.966 225.148H440.312L447.841 222.477H485.819L479.966 225.148ZM476.773 226.604L469.75 229.812H427.183L436.215 226.604H476.773ZM421.862 229.812H379.987L391.028 226.604H430.881L421.862 229.812ZM417.752 231.267L406.911 235.121H361.724L374.986 231.267H417.752ZM402.8 236.576L389.738 241.223H340.733L356.709 236.576H402.8ZM385.641 242.678L369.811 248.301H316.377L335.718 242.678H385.641ZM365.701 249.757L346.4 256.612H287.764L311.362 249.757H365.701ZM342.303 258.068L318.518 266.516H253.684L282.749 258.068H342.303ZM314.408 267.978L284.731 278.521H212.381L248.656 267.978H314.408ZM280.621 279.977L242.936 293.363H161.314L207.366 279.977H280.621ZM238.839 294.813L189.94 312.177H96.5465L156.299 294.813H238.839ZM244.16 294.813H327.404L289.374 312.177H195.275L244.16 294.813ZM286.181 313.639L235.394 336.837H125.851L191.178 313.639H286.181ZM290.837 313.639H386.465L350.177 336.837H240.036L290.837 313.639ZM390.562 313.639H486.697L464.921 336.837H354.274L390.562 313.639ZM490.355 313.639H586.821L579.558 336.837H468.579L490.355 313.639ZM590.24 313.639H686.826L694.076 336.837H582.977L590.24 313.639ZM690.245 313.639H786.712L808.487 336.837H697.508L690.245 313.639ZM790.37 313.639H886.504L922.792 336.837H812.145L790.37 313.639ZM890.601 313.639H986.23L1037.03 336.837H926.876L890.601 313.639ZM990.886 313.639H1085.9L1151.22 336.837H1041.69L990.886 313.639ZM1091.22 313.639H1185.53L1265.37 336.837H1156.54L1091.22 313.639ZM881.024 225.148H842.075L834.559 222.477H871.832L881.024 225.148ZM405.235 222.477H442.52L434.991 225.148H396.043L405.235 222.477ZM91.5316 313.639H185.843L120.53 336.837H11.7058L91.5316 313.639Z" fill="url(#paint0_linear_264_881)" fill-opacity="0.4"/>
</g>
</g>
<defs>
<linearGradient id="paint0_linear_264_881" x1="638.533" y1="221.015" x2="638.533" y2="338.293" gradientUnits="userSpaceOnUse">
<stop stop-color="#8C52FF" stop-opacity="0"/>
<stop offset="1" stop-color="#8C52FF"/>
</linearGradient>
<clipPath id="clip0_264_881">
<rect width="1277" height="548" fill="white"/>
</clipPath>
</defs>
</svg>
