<svg xmlns="http://www.w3.org/2000/svg" xmlns:xlink="http://www.w3.org/1999/xlink" width="500" zoomAndPan="magnify" viewBox="0 0 375 374.999991" height="500" preserveAspectRatio="xMidYMid meet" version="1.0"><defs><clipPath id="fab6530de7"><path d="M 2.726562 2 L 374.726562 2 L 374.726562 375 L 2.726562 375 Z M 2.726562 2 " clip-rule="nonzero"/></clipPath><clipPath id="b686286a29"><path d="M 372.617188 214.476562 C 372.675781 214.0625 372.730469 213.644531 372.785156 213.222656 C 372.917969 212.238281 373.039062 211.261719 373.152344 210.277344 C 373.648438 206.105469 374.0625 201.523438 374.222656 197.132812 C 374.222656 197.125 374.222656 197.117188 374.222656 197.105469 C 374.460938 193.402344 374.433594 188.511719 374.394531 185.925781 C 374.351562 183.164062 374.253906 179.429688 374.019531 176.261719 C 374.019531 176.246094 374.019531 176.226562 374.019531 176.210938 C 374.007812 176.050781 373.992188 175.898438 373.980469 175.746094 C 373.796875 173.15625 373.511719 170.324219 373.238281 167.738281 C 372.917969 164.703125 372.335938 160.207031 371.652344 156.679688 C 371.027344 152.675781 369.828125 147.511719 369.339844 145.480469 C 368.757812 143.042969 367.644531 138.585938 366.507812 134.957031 C 365.183594 130.59375 362.929688 123.796875 360.117188 117.136719 C 360.117188 117.132812 360.117188 117.128906 360.113281 117.128906 C 357.941406 111.835938 355.480469 106.804688 353.410156 102.832031 C 353.378906 102.773438 353.347656 102.71875 353.320312 102.660156 C 353.078125 102.199219 352.839844 101.742188 352.609375 101.3125 C 352.496094 101.089844 352.371094 100.847656 352.261719 100.628906 C 351.726562 99.597656 351.09375 98.472656 350.433594 97.324219 C 349.464844 95.59375 348.851562 94.570312 348.832031 94.539062 C 348.554688 94.089844 348.257812 93.609375 347.953125 93.121094 C 347.734375 92.757812 347.511719 92.386719 347.300781 92.035156 L 346.046875 89.953125 C 344.21875 86.890625 338.503906 78.378906 332.960938 71.664062 C 332.484375 71.085938 331.933594 70.4375 331.386719 69.792969 C 331.070312 69.40625 330.742188 69.011719 330.402344 68.613281 C 330.261719 68.445312 330.109375 68.257812 329.972656 68.09375 L 329.652344 67.699219 C 328.023438 65.726562 325.773438 63.269531 323.453125 60.84375 C 323.4375 60.828125 323.421875 60.808594 323.410156 60.792969 C 321.476562 58.710938 319.15625 56.382812 317.226562 54.578125 C 316.136719 53.527344 315.167969 52.621094 314.433594 51.972656 C 313.859375 51.464844 313.238281 50.90625 312.59375 50.328125 C 310.796875 48.714844 308.761719 46.886719 307.046875 45.542969 C 306.59375 45.183594 306.074219 44.773438 305.574219 44.375 C 304.355469 43.382812 303.273438 42.527344 302.359375 41.820312 C 302.085938 41.605469 301.804688 41.375 301.542969 41.164062 C 298.804688 38.988281 294.792969 36.125 291.558594 34.039062 C 291.554688 34.039062 291.550781 34.035156 291.546875 34.03125 C 291.519531 34.015625 291.492188 33.996094 291.464844 33.976562 C 290.683594 33.460938 289.921875 32.96875 289.167969 32.488281 C 288.308594 31.929688 287.417969 31.371094 286.511719 30.8125 C 284.53125 29.585938 282.691406 28.488281 281.050781 27.539062 C 280.777344 27.378906 280.5 27.222656 280.214844 27.058594 C 277.101562 25.28125 274.773438 24.058594 273.578125 23.453125 C 271.832031 22.527344 269.765625 21.554688 267.898438 20.683594 C 266.984375 20.253906 266.105469 19.84375 265.308594 19.457031 C 263.195312 18.4375 259.234375 16.792969 255.183594 15.234375 C 255.039062 15.175781 254.886719 15.109375 254.742188 15.050781 C 252.054688 13.949219 248.21875 12.609375 244.96875 11.640625 L 242.839844 10.992188 C 242.710938 10.953125 242.570312 10.910156 242.441406 10.871094 C 241.296875 10.519531 240.125 10.164062 238.964844 9.828125 C 238.964844 9.828125 238.960938 9.828125 238.960938 9.828125 C 238.410156 9.667969 237.867188 9.515625 237.339844 9.375 C 236.609375 9.175781 235.898438 8.988281 235.238281 8.835938 C 234.976562 8.773438 234.734375 8.722656 234.476562 8.660156 C 232 8.019531 229.175781 7.414062 226.800781 6.90625 L 226.417969 6.824219 C 225.027344 6.527344 221.960938 5.890625 218.972656 5.410156 C 218.300781 5.292969 217.652344 5.1875 217.042969 5.09375 C 216.894531 5.070312 216.769531 5.054688 216.621094 5.03125 C 216.589844 5.027344 216.558594 5.019531 216.527344 5.015625 C 213.703125 4.585938 211.980469 4.335938 209.941406 4.117188 C 208.890625 3.996094 207.910156 3.894531 207.078125 3.832031 C 206.355469 3.78125 205.6875 3.730469 205.042969 3.679688 C 203.332031 3.53125 201.496094 3.390625 199.574219 3.277344 C 198.9375 3.234375 198.273438 3.183594 197.5625 3.132812 C 196.972656 3.089844 196.347656 3.058594 195.71875 3.03125 C 193.101562 2.886719 191.566406 2.886719 188.808594 2.914062 C 188.3125 2.917969 187.859375 2.921875 187.527344 2.925781 C 187.238281 2.929688 186.914062 2.933594 186.617188 2.9375 C 184.339844 2.964844 181.765625 3.007812 179.476562 3.132812 C 178.207031 3.191406 176.96875 3.261719 175.871094 3.359375 C 175.382812 3.402344 174.863281 3.453125 174.34375 3.503906 C 171.363281 3.742188 168.289062 4.074219 166.402344 4.292969 C 165.332031 4.417969 164.128906 4.582031 162.902344 4.765625 C 161.464844 4.945312 160.128906 5.128906 158.941406 5.304688 C 155.753906 5.785156 151.265625 6.65625 147.503906 7.527344 C 146.894531 7.667969 146.042969 7.867188 145.042969 8.109375 C 144.414062 8.257812 143.785156 8.410156 143.148438 8.570312 C 143.128906 8.574219 143.105469 8.582031 143.085938 8.585938 C 142.914062 8.628906 142.746094 8.671875 142.578125 8.714844 C 139.988281 9.363281 137.367188 10.082031 134.96875 10.835938 C 134.878906 10.867188 134.777344 10.894531 134.6875 10.921875 L 133.515625 11.292969 C 131.058594 12.066406 128.003906 13.03125 125.714844 13.902344 L 125.226562 14.089844 C 124.796875 14.253906 124.347656 14.421875 123.898438 14.59375 C 123.300781 14.8125 122.699219 15.039062 122.085938 15.273438 C 121.285156 15.574219 120.496094 15.875 119.75 16.167969 C 118.738281 16.566406 117.605469 17.035156 116.417969 17.542969 C 114.394531 18.378906 112.4375 19.230469 110.722656 20.0625 C 110.617188 20.113281 110.511719 20.167969 110.40625 20.21875 C 109.28125 20.742188 108.171875 21.269531 107.113281 21.78125 C 106.304688 22.175781 105.453125 22.613281 104.582031 23.0625 C 102.664062 24.035156 100.84375 25.003906 99.300781 25.878906 C 98.046875 26.566406 96.816406 27.253906 95.699219 27.90625 C 95.113281 28.234375 94.550781 28.554688 94.015625 28.859375 C 92.851562 29.53125 91.582031 30.3125 90.289062 31.128906 C 88.734375 32.058594 86.984375 33.238281 85.257812 34.414062 C 84.167969 35.144531 83.132812 35.84375 82.222656 36.46875 L 82.21875 36.46875 L 82.210938 36.476562 C 81.226562 37.179688 80.300781 37.847656 79.40625 38.5 C 77.734375 39.699219 76.039062 40.921875 74.667969 42.035156 C 74.578125 42.109375 74.46875 42.199219 74.371094 42.277344 C 70.023438 45.644531 66.304688 48.839844 61.550781 53.226562 C 61.546875 53.230469 61.542969 53.234375 61.539062 53.238281 C 60.191406 54.464844 58.8125 55.804688 57.460938 57.160156 C 51.332031 63.273438 46.355469 69.191406 45.265625 70.574219 C 45.199219 70.664062 45.125 70.753906 45.058594 70.84375 C 43.726562 72.464844 42.285156 74.253906 41.132812 75.773438 C 39.214844 78.320312 36.316406 82.160156 34.390625 85.179688 C 34.386719 85.183594 34.386719 85.1875 34.382812 85.1875 C 32.269531 88.214844 29.734375 92.453125 28.410156 94.710938 C 27.242188 96.703125 26.152344 98.660156 25.128906 100.566406 C 25.097656 100.621094 25.0625 100.679688 25.03125 100.734375 C 24.335938 101.976562 23.601562 103.421875 22.875 104.902344 C 21.875 106.882812 20.96875 108.773438 20.148438 110.542969 C 20.109375 110.625 20.0625 110.722656 20.023438 110.804688 C 18.625 113.679688 16.929688 117.671875 15.757812 120.839844 C 15.726562 120.914062 15.695312 120.996094 15.667969 121.070312 C 12.28125 129.847656 10.277344 136.832031 9.402344 140.109375 C 8.632812 142.90625 7.878906 146.199219 7.214844 149.183594 C 6.808594 151.027344 6.398438 153.265625 6.007812 155.429688 C 6.003906 155.441406 6 155.453125 6 155.464844 C 5.96875 155.625 5.941406 155.785156 5.910156 155.949219 C 5.765625 156.746094 5.621094 157.523438 5.488281 158.230469 C 5.480469 158.257812 5.296875 159.292969 5.035156 161.050781 C 4.5 164.324219 4.003906 168.386719 3.769531 171.511719 C 3.765625 171.582031 3.761719 171.65625 3.757812 171.722656 C 3.558594 173.839844 3.382812 176.113281 3.25 178.496094 C 3.03125 182.484375 2.964844 186.230469 2.972656 189.402344 C 2.972656 189.527344 2.96875 189.660156 2.96875 189.78125 C 2.929688 192.289062 3.046875 195.316406 3.175781 197.824219 C 3.191406 198.164062 3.203125 198.40625 3.214844 198.597656 C 3.265625 199.503906 3.316406 200.320312 3.359375 200.984375 C 3.429688 202.078125 3.511719 203.148438 3.601562 204.207031 C 3.753906 206.242188 3.9375 208.292969 4.167969 210.035156 C 4.183594 210.144531 4.203125 210.269531 4.21875 210.378906 C 4.265625 210.804688 4.320312 211.222656 4.371094 211.640625 C 4.613281 213.773438 4.949219 216.171875 5.324219 218.398438 C 6.027344 222.800781 6.746094 226.335938 7.265625 228.675781 C 7.886719 231.734375 8.859375 235.390625 9.824219 238.921875 C 9.894531 239.183594 9.984375 239.476562 10.0625 239.753906 C 10.132812 240.007812 10.203125 240.246094 10.273438 240.492188 C 10.320312 240.660156 10.363281 240.8125 10.414062 240.984375 C 10.441406 241.078125 10.46875 241.175781 10.496094 241.269531 C 11.351562 244.175781 12.578125 248.148438 13.773438 251.394531 C 15.214844 255.425781 17.632812 261.636719 21.222656 269.207031 C 21.234375 269.234375 21.25 269.265625 21.261719 269.292969 C 22.746094 272.507812 25.046875 276.90625 27.121094 280.5 C 27.332031 280.863281 27.523438 281.183594 27.730469 281.539062 C 29.085938 283.894531 30.242188 285.800781 30.984375 286.996094 C 31.0625 287.125 31.136719 287.242188 31.21875 287.371094 C 31.507812 287.832031 31.71875 288.167969 31.8125 288.3125 C 31.820312 288.324219 31.828125 288.335938 31.835938 288.347656 C 32.699219 289.722656 33.511719 290.984375 34.222656 292.015625 C 34.253906 292.058594 34.289062 292.109375 34.316406 292.152344 C 35.269531 293.585938 36.195312 294.945312 37.019531 296.085938 C 37.578125 296.851562 38.292969 297.835938 39.089844 298.90625 C 39.800781 299.898438 40.589844 300.945312 41.421875 302.015625 C 42.707031 303.699219 44.042969 305.410156 45.257812 306.867188 C 45.257812 306.871094 45.261719 306.871094 45.261719 306.875 C 46.207031 308.0625 47.308594 309.351562 48.464844 310.664062 C 49.546875 311.921875 50.59375 313.105469 51.542969 314.105469 C 51.847656 314.429688 52.121094 314.707031 52.417969 315.023438 C 53.316406 315.996094 54.171875 316.902344 54.96875 317.730469 C 55.171875 317.945312 55.378906 318.164062 55.574219 318.371094 L 55.75 318.554688 C 57.257812 320.15625 59.464844 322.300781 62.492188 325.117188 C 64.566406 327.042969 66.363281 328.644531 67.917969 329.96875 C 68 330.039062 68.082031 330.113281 68.164062 330.179688 C 68.871094 330.78125 69.542969 331.335938 70.132812 331.800781 C 70.601562 332.171875 71.09375 332.550781 71.582031 332.929688 C 74.996094 335.714844 78.972656 338.765625 83.632812 341.953125 C 83.929688 342.15625 84.246094 342.367188 84.566406 342.582031 C 84.914062 342.832031 85.273438 343.085938 85.605469 343.320312 C 85.90625 343.53125 86.292969 343.792969 86.730469 344.085938 C 89.28125 345.804688 92.277344 347.621094 95.109375 349.257812 C 97.769531 350.820312 100.535156 352.375 102.882812 353.566406 C 103.753906 354.027344 104.394531 354.355469 104.710938 354.507812 C 104.90625 354.601562 105.125 354.703125 105.328125 354.800781 C 105.878906 355.074219 106.433594 355.335938 106.988281 355.605469 C 109.660156 356.933594 112.144531 358.105469 113.808594 358.796875 C 113.957031 358.859375 114.136719 358.933594 114.289062 359 C 116.535156 360 118.867188 360.992188 121.0625 361.84375 C 121.472656 362.003906 121.855469 362.144531 122.257812 362.300781 C 122.324219 362.324219 122.394531 362.351562 122.464844 362.378906 C 122.519531 362.402344 122.578125 362.429688 122.636719 362.453125 C 125.074219 363.453125 128.21875 364.507812 131.164062 365.460938 C 131.511719 365.574219 131.863281 365.691406 132.207031 365.800781 C 132.269531 365.820312 132.335938 365.839844 132.394531 365.859375 C 135.136719 366.738281 138.984375 367.917969 141.953125 368.621094 C 145.589844 369.578125 152.164062 371.152344 160.335938 372.410156 C 160.460938 372.429688 160.582031 372.445312 160.707031 372.464844 C 160.75 372.472656 160.796875 372.480469 160.839844 372.488281 C 160.890625 372.496094 164.253906 373.046875 169.339844 373.574219 C 175.410156 374.214844 179.515625 374.359375 179.808594 374.371094 C 179.816406 374.371094 179.828125 374.371094 179.835938 374.371094 C 183.183594 374.527344 186.027344 374.585938 188.578125 374.585938 C 188.738281 374.585938 188.878906 374.582031 189.035156 374.582031 C 189.128906 374.582031 189.21875 374.582031 189.304688 374.582031 C 189.867188 374.578125 190.449219 374.570312 191.03125 374.5625 C 191.277344 374.558594 191.53125 374.558594 191.773438 374.554688 C 191.933594 374.550781 192.097656 374.546875 192.257812 374.542969 C 193.910156 374.523438 195.6875 374.472656 197.367188 374.382812 C 198.085938 374.351562 198.765625 374.316406 199.382812 374.277344 C 199.390625 374.277344 199.402344 374.277344 199.414062 374.277344 C 201.167969 374.195312 203.179688 374.035156 205.105469 373.859375 C 206.378906 373.75 207.6875 373.628906 208.882812 373.488281 C 209.128906 373.460938 209.390625 373.429688 209.636719 373.398438 C 210.125 373.347656 210.585938 373.296875 210.980469 373.25 C 211.578125 373.179688 212.226562 373.09375 212.894531 373.003906 C 215.597656 372.664062 218.300781 372.28125 220.53125 371.847656 L 220.550781 371.84375 C 222.648438 371.527344 225.066406 371.035156 227.46875 370.503906 C 228.3125 370.328125 229.140625 370.152344 229.882812 369.976562 C 230.429688 369.847656 231.019531 369.703125 231.625 369.558594 C 232.003906 369.46875 232.410156 369.375 232.777344 369.289062 L 233.257812 369.175781 C 237.445312 368.195312 242.988281 366.585938 247.460938 365.066406 C 248.945312 364.582031 250.410156 364.082031 251.671875 363.601562 L 252.300781 363.359375 C 256.835938 361.628906 262.480469 359.476562 266.664062 357.4375 C 266.667969 357.433594 266.671875 357.433594 266.675781 357.429688 C 269.523438 356.136719 273.933594 353.996094 279.304688 350.976562 C 280.75 350.183594 282.128906 349.394531 283.378906 348.632812 L 283.863281 348.339844 C 283.929688 348.296875 284.011719 348.25 284.082031 348.207031 C 285.027344 347.636719 285.996094 347.039062 286.980469 346.425781 C 288.617188 345.414062 290.269531 344.371094 291.640625 343.4375 C 291.875 343.277344 292.148438 343.089844 292.414062 342.90625 C 293.324219 342.296875 294.238281 341.675781 295.164062 341.03125 C 300.074219 337.613281 304.371094 334.253906 308.058594 331.164062 C 308.175781 331.066406 308.289062 330.972656 308.402344 330.875 C 312.613281 327.332031 315.984375 324.171875 318.5 321.710938 C 318.910156 321.316406 319.308594 320.933594 319.671875 320.574219 C 320.761719 319.496094 321.804688 318.4375 322.800781 317.402344 C 324.34375 315.8125 326.9375 313.082031 329.117188 310.492188 C 331.878906 307.3125 333.628906 305.082031 333.953125 304.660156 L 334.238281 304.296875 C 334.238281 304.292969 334.242188 304.292969 334.242188 304.289062 C 334.6875 303.738281 335.117188 303.195312 335.507812 302.6875 C 336.152344 301.847656 336.902344 300.859375 337.671875 299.832031 C 337.960938 299.445312 338.242188 299.070312 338.515625 298.703125 C 339.824219 296.933594 341.148438 295.09375 342.203125 293.492188 C 342.386719 293.210938 342.601562 292.878906 342.8125 292.558594 C 343.210938 291.972656 343.609375 291.375 344.003906 290.769531 C 344.714844 289.695312 345.386719 288.660156 345.945312 287.773438 C 352.125 277.96875 355.792969 270.015625 355.828125 269.941406 C 355.84375 269.90625 355.863281 269.863281 355.878906 269.828125 C 356.804688 267.917969 357.613281 266.15625 358.386719 264.394531 C 359.109375 262.8125 359.804688 261.234375 360.351562 259.835938 C 360.359375 259.816406 360.367188 259.796875 360.375 259.777344 C 361.609375 256.863281 364.019531 250.796875 366.472656 242.617188 C 366.488281 242.570312 367.664062 238.96875 369.160156 232.6875 C 369.648438 230.675781 370.117188 228.59375 370.5625 226.441406 C 371.085938 223.886719 372.035156 219.058594 372.492188 215.402344 C 372.5 215.339844 372.507812 215.273438 372.515625 215.210938 C 372.539062 215.035156 372.566406 214.855469 372.589844 214.675781 C 372.601562 214.609375 372.609375 214.542969 372.617188 214.476562 Z M 329.597656 308.027344 C 329.328125 308.351562 329.011719 308.714844 328.71875 309.058594 C 327.246094 310.769531 325.183594 313.101562 322.726562 315.703125 C 322.3125 316.132812 321.890625 316.578125 321.507812 316.964844 C 321.328125 317.144531 321.132812 317.339844 320.945312 317.523438 C 323.480469 314.261719 325.761719 310.902344 327.726562 307.433594 C 331.078125 304.554688 334.175781 301.550781 337.046875 298.445312 C 335.882812 300.011719 334.683594 301.597656 333.496094 303.144531 C 332.113281 304.921875 330.777344 306.59375 329.597656 308.027344 Z M 264 357.308594 C 263.554688 357.503906 263.101562 357.703125 262.636719 357.902344 C 262.554688 357.9375 262.472656 357.972656 262.386719 358.011719 C 261.886719 358.222656 261.378906 358.4375 260.863281 358.652344 C 260.746094 358.699219 260.628906 358.75 260.511719 358.800781 C 260.460938 358.820312 260.40625 358.839844 260.355469 358.863281 C 263.335938 357.328125 266.214844 355.683594 268.988281 353.921875 C 272.703125 352.496094 276.324219 350.9375 279.847656 349.261719 C 278.230469 350.179688 276.652344 351.050781 275.097656 351.871094 C 273.050781 352.9375 270.945312 353.996094 268.875 355.019531 C 267.914062 355.484375 266.941406 355.949219 265.953125 356.417969 C 265.511719 356.625 265.042969 356.835938 264.570312 357.050781 C 264.378906 357.136719 264.1875 357.222656 264 357.308594 Z M 82.917969 37.484375 C 86.875 34.871094 92.449219 31.304688 97.226562 28.464844 C 97.929688 28.0625 98.628906 27.664062 99.328125 27.273438 C 101.699219 25.988281 104.261719 24.644531 106.800781 23.351562 C 109.765625 21.910156 112.742188 20.546875 114.84375 19.597656 C 115.480469 19.328125 116.132812 19.054688 116.796875 18.777344 C 112.566406 20.964844 108.511719 23.363281 104.714844 26.019531 C 94.980469 32.824219 87.367188 40.820312 82.027344 49.597656 C 74.03125 53.316406 66.472656 57.570312 59.515625 62.433594 C 57.066406 64.144531 54.753906 65.929688 52.503906 67.746094 C 57.097656 60.390625 63.03125 53.496094 70.253906 47.238281 C 70.632812 46.921875 71.003906 46.609375 71.371094 46.300781 C 72.453125 45.390625 73.546875 44.484375 74.683594 43.601562 C 74.734375 43.558594 74.785156 43.519531 74.835938 43.476562 C 76.292969 42.347656 77.792969 41.246094 79.335938 40.167969 L 79.3125 40.136719 C 79.316406 40.136719 79.316406 40.132812 79.316406 40.132812 L 79.296875 40.109375 C 79.714844 39.808594 80.132812 39.503906 80.546875 39.207031 C 81.378906 38.605469 82.183594 38.023438 82.90625 37.492188 C 82.910156 37.488281 82.914062 37.488281 82.917969 37.484375 Z M 325.230469 64.59375 C 325.757812 65.175781 326.292969 65.753906 326.8125 66.34375 C 327.285156 66.878906 327.742188 67.394531 328.199219 67.921875 C 329.335938 69.234375 330.460938 70.570312 331.5625 71.921875 C 333.558594 74.453125 335.6875 77.25 337.679688 79.949219 L 337.671875 79.957031 C 338.175781 80.617188 338.648438 81.28125 339.136719 81.945312 C 339.730469 82.761719 340.308594 83.566406 340.847656 84.332031 C 340.878906 84.375 340.90625 84.417969 340.9375 84.457031 C 342.066406 86.144531 343.207031 87.882812 344.292969 89.570312 C 344.488281 89.890625 344.6875 90.207031 344.878906 90.523438 C 345.375 91.347656 345.851562 92.171875 346.316406 92.996094 C 346.574219 93.453125 346.828125 93.910156 347.078125 94.367188 C 347.546875 95.230469 347.996094 96.09375 348.433594 96.960938 C 348.652344 97.386719 348.863281 97.8125 349.070312 98.242188 C 349.503906 99.136719 349.925781 100.03125 350.324219 100.925781 C 350.507812 101.335938 350.6875 101.746094 350.863281 102.15625 C 351.253906 103.066406 351.632812 103.976562 351.988281 104.890625 C 352.148438 105.296875 352.300781 105.703125 352.453125 106.109375 C 352.796875 107.023438 353.125 107.941406 353.429688 108.859375 C 353.570312 109.273438 353.703125 109.6875 353.835938 110.101562 C 354.125 111.007812 354.398438 111.914062 354.652344 112.820312 C 354.777344 113.257812 354.890625 113.695312 355.003906 114.132812 C 355.0625 114.34375 355.109375 114.550781 355.160156 114.761719 C 349.09375 105.566406 341.488281 96.730469 332.476562 88.457031 C 329.082031 74.527344 320.988281 60.96875 308.941406 48.84375 C 310.566406 50.234375 312.160156 51.617188 313.632812 52.929688 C 315.171875 54.339844 316.773438 55.851562 318.421875 57.46875 C 319.527344 58.554688 320.613281 59.6875 321.699219 60.816406 C 322.804688 61.988281 324.007812 63.269531 325.230469 64.59375 Z M 364.933594 243.460938 C 363.335938 248.277344 361.460938 253.570312 359.890625 257.710938 C 359.890625 257.714844 359.886719 257.71875 359.886719 257.722656 C 359.863281 257.769531 359.84375 257.824219 359.824219 257.871094 C 359.210938 259.308594 358.53125 260.863281 357.820312 262.453125 C 359.105469 257.988281 360.007812 253.429688 360.5 248.792969 C 363.089844 244.535156 365.316406 240.15625 367.125 235.65625 C 367.019531 236.089844 366.914062 236.535156 366.808594 236.949219 C 366.707031 237.355469 366.597656 237.777344 366.484375 238.207031 C 366.105469 239.574219 365.59375 241.347656 364.933594 243.460938 Z M 50.230469 66.652344 C 51.988281 64.695312 54.234375 62.289062 56.328125 60.113281 C 53.835938 63.332031 51.589844 66.652344 49.652344 70.074219 C 46.195312 73.042969 43.015625 76.144531 40.074219 79.351562 C 41.582031 77.320312 43.15625 75.238281 44.683594 73.261719 C 46.398438 71.144531 48.394531 68.757812 50.207031 66.679688 C 50.214844 66.671875 50.222656 66.664062 50.230469 66.652344 Z M 372.914062 178.640625 C 372.949219 179.335938 372.988281 180.105469 373.023438 180.902344 C 373.09375 183.566406 373.144531 186.664062 373.144531 189.75 C 373.089844 192.164062 372.996094 194.8125 372.875 197.4375 C 372.488281 192.816406 371.738281 188.203125 370.621094 183.613281 C 371.542969 179.074219 372.046875 174.445312 372.171875 169.753906 C 372.277344 170.710938 372.382812 171.652344 372.476562 172.566406 C 372.59375 173.886719 372.703125 175.230469 372.792969 176.609375 C 372.820312 177.054688 372.851562 177.59375 372.886719 178.160156 C 372.894531 178.324219 372.90625 178.503906 372.914062 178.640625 Z M 370.394531 220.402344 C 368.632812 229.308594 365.394531 237.902344 360.746094 246.03125 C 360.90625 243.820312 361.003906 241.601562 360.976562 239.363281 C 360.882812 231.164062 359.542969 222.964844 357.0625 214.878906 C 363.226562 205.96875 367.578125 196.394531 369.988281 186.375 C 371.214844 192.089844 371.882812 197.839844 371.949219 203.589844 C 372.011719 209.027344 371.523438 214.382812 370.539062 219.632812 C 370.492188 219.886719 370.441406 220.144531 370.394531 220.402344 Z M 206.28125 372.425781 C 177.027344 375.011719 145.492188 370.476562 117.554688 359.011719 C 117.457031 358.96875 117.363281 358.929688 117.265625 358.886719 C 112.96875 357.007812 108.257812 354.839844 104.40625 352.960938 C 99.179688 350.273438 94.117188 347.332031 89.285156 344.117188 C 80.929688 338.554688 73.640625 332.421875 67.46875 325.910156 C 69.632812 327.5 71.859375 329.0625 74.152344 330.589844 C 84.757812 337.652344 96.246094 343.652344 108.269531 348.628906 C 108.703125 348.925781 109.117188 349.234375 109.558594 349.527344 C 130.351562 363.371094 156.835938 370.410156 182.121094 370.410156 C 194.371094 370.410156 206.332031 368.75 217.234375 365.417969 C 233.238281 364.054688 248.6875 360.953125 262.957031 356.105469 C 248.910156 363.917969 232.4375 369.015625 214.894531 371.457031 C 211.964844 371.832031 208.929688 372.164062 206.28125 372.425781 Z M 32.757812 287.359375 C 27.925781 279.394531 24.398438 271.152344 22.257812 262.804688 C 28.320312 271.980469 35.910156 280.796875 44.902344 289.054688 C 47.265625 298.746094 51.898438 308.261719 58.554688 317.238281 C 50.171875 310.011719 43.035156 302.261719 37.257812 294.164062 C 35.722656 291.90625 34.179688 289.574219 32.757812 287.359375 Z M 162.550781 6.0625 C 164.859375 5.761719 167.378906 5.460938 169.917969 5.1875 C 199.230469 2.398438 230.925781 6.8125 259.042969 18.195312 C 263.34375 20.039062 267.84375 22.066406 271.394531 23.757812 C 271.398438 23.757812 271.398438 23.757812 271.402344 23.761719 C 271.835938 23.976562 272.234375 24.175781 272.644531 24.382812 C 273.882812 25.015625 275.101562 25.671875 276.316406 26.332031 C 278.273438 27.4375 280.929688 28.960938 283.746094 30.632812 C 285.210938 31.539062 286.667969 32.453125 288.09375 33.402344 C 310.472656 48.296875 325.367188 67.203125 330.78125 86.914062 C 324.5625 81.359375 317.710938 76.066406 310.25 71.101562 C 306.167969 68.382812 301.957031 65.828125 297.660156 63.386719 C 293.046875 50.308594 282.730469 37.898438 267.820312 27.976562 C 228.824219 2.011719 169.800781 -0.0195312 136.246094 23.441406 C 130.816406 27.238281 126.304688 31.550781 122.761719 36.242188 C 109.082031 39.117188 96.0625 43.269531 84.03125 48.667969 C 89.226562 40.648438 96.402344 33.332031 105.410156 27.035156 C 121.082031 16.074219 140.769531 9.144531 162.054688 6.128906 C 162.21875 6.105469 162.382812 6.085938 162.550781 6.0625 Z M 28.484375 97.132812 C 33.390625 88.570312 39.945312 80.558594 47.96875 73.253906 C 43.34375 82.378906 40.65625 92.109375 40.101562 102.199219 C 31.34375 109.496094 24.0625 117.546875 18.429688 126.191406 C 19.847656 116.140625 23.175781 106.457031 28.34375 97.375 C 28.386719 97.296875 28.4375 97.214844 28.484375 97.132812 Z M 198.046875 366.25 C 202.390625 366.25 206.710938 366.113281 211.003906 365.867188 C 180.226562 373.351562 142.417969 368.167969 113.972656 350.882812 C 140.679688 361.066406 169.792969 366.25 198.046875 366.25 Z M 108.917969 347.589844 C 95.457031 338.316406 85.953125 326.992188 81.355469 315.050781 C 95.261719 322.792969 110.183594 329.105469 125.65625 333.976562 C 128.394531 337.347656 131.886719 340.496094 136.058594 343.273438 C 147.054688 350.59375 161.066406 354.316406 174.441406 354.316406 C 185.769531 354.316406 196.617188 351.621094 204.820312 346.207031 C 205.027344 346.207031 205.234375 346.21875 205.441406 346.21875 C 221.648438 346.21875 237.585938 344.683594 252.773438 341.628906 C 249.449219 345.789062 245.332031 349.636719 240.445312 353.054688 C 233.570312 357.859375 225.601562 361.566406 216.960938 364.222656 C 181.292969 367.238281 142.902344 361.625 108.917969 347.589844 Z M 250.023438 77.703125 C 248.765625 78.941406 247.398438 80.125 245.84375 81.210938 C 228.449219 93.375 197.820312 92.296875 177.5625 78.8125 C 171.332031 74.664062 166.664062 69.683594 163.859375 64.378906 C 192.613281 64.203125 222.203125 68.679688 250.023438 77.703125 Z M 250.992188 76.742188 C 222.6875 67.492188 192.535156 62.941406 163.253906 63.1875 C 161.964844 60.457031 161.160156 57.648438 160.902344 54.832031 C 160.851562 54.25 160.820312 53.667969 160.8125 53.085938 C 160.726562 45.3125 164.832031 38.121094 172.375 32.847656 C 172.550781 32.726562 172.746094 32.625 172.921875 32.507812 C 199.003906 32.605469 225.730469 36.675781 251.015625 44.601562 C 255.085938 49.730469 257.335938 55.363281 257.398438 60.988281 C 257.433594 63.902344 256.878906 66.734375 255.773438 69.410156 C 254.691406 72.023438 253.078125 74.488281 250.992188 76.742188 Z M 174.804688 31.332031 C 192.503906 20.835938 221.292969 22.359375 240.652344 35.246094 C 244.117188 37.550781 247.089844 40.117188 249.539062 42.851562 C 225.292969 35.457031 199.78125 31.609375 174.804688 31.332031 Z M 162.511719 64.394531 C 165.378906 70.089844 170.289062 75.421875 176.902344 79.824219 C 187.898438 87.144531 201.90625 90.867188 215.277344 90.867188 C 226.996094 90.867188 238.230469 88.007812 246.523438 82.207031 C 248.320312 80.949219 249.90625 79.574219 251.324219 78.121094 C 266.511719 83.136719 281.148438 89.511719 294.816406 97.238281 C 293.597656 99.695312 292.136719 102.078125 290.433594 104.367188 C 286.941406 109.058594 282.445312 113.367188 277.019531 117.160156 C 272.875 120.058594 268.335938 122.566406 263.488281 124.679688 C 223.867188 107.734375 178.617188 101.078125 136.882812 105.050781 C 128.1875 97.457031 121.824219 88.898438 118.210938 79.972656 C 116.796875 76.476562 115.824219 72.917969 115.277344 69.347656 C 130.421875 66.199219 146.328125 64.578125 162.511719 64.394531 Z M 204.480469 345.007812 C 178.394531 344.910156 151.660156 340.839844 126.367188 332.914062 C 122.289062 327.78125 120.03125 322.140625 119.96875 316.507812 C 119.9375 313.59375 120.492188 310.757812 121.601562 308.078125 C 122.675781 305.476562 124.28125 303.023438 126.355469 300.773438 C 153.953125 309.796875 183.3125 314.371094 211.902344 314.371094 C 212.652344 314.371094 213.398438 314.34375 214.152344 314.335938 C 215.699219 317.628906 216.542969 321.03125 216.578125 324.429688 C 216.667969 332.207031 212.5625 339.398438 205.011719 344.675781 C 204.84375 344.792969 204.652344 344.890625 204.480469 345.007812 Z M 127.332031 299.804688 C 128.589844 298.5625 129.964844 297.371094 131.527344 296.28125 C 148.925781 284.117188 179.5625 285.191406 199.824219 298.679688 C 206.066406 302.835938 210.738281 307.824219 213.546875 313.140625 C 184.773438 313.320312 155.167969 308.839844 127.332031 299.804688 Z M 262.105469 308.167969 C 246.960938 311.316406 231.058594 312.941406 214.882812 313.121094 C 212.015625 307.425781 207.101562 302.089844 200.484375 297.683594 C 200.480469 297.683594 200.480469 297.679688 200.476562 297.679688 L 200.484375 297.667969 C 179.851562 283.929688 148.609375 282.863281 130.851562 295.285156 C 129.042969 296.546875 127.449219 297.929688 126.03125 299.390625 C 110.847656 294.375 96.21875 288 82.558594 280.277344 C 84.609375 276.140625 87.351562 272.214844 90.761719 268.582031 C 93.535156 265.632812 96.738281 262.871094 100.355469 260.34375 C 104.507812 257.441406 109.050781 254.933594 113.902344 252.816406 C 146.089844 266.582031 181.980469 273.585938 216.703125 273.585938 C 224.722656 273.585938 232.679688 273.210938 240.511719 272.460938 C 248.132812 279.121094 253.964844 286.519531 257.71875 294.257812 C 259.917969 298.808594 261.386719 303.472656 262.105469 308.167969 Z M 336.617188 184.570312 C 336.304688 184.910156 335.972656 185.242188 335.652344 185.578125 C 334.964844 186.300781 334.285156 187.023438 333.570312 187.730469 C 333.203125 188.09375 332.816406 188.441406 332.445312 188.796875 C 331.746094 189.46875 331.050781 190.144531 330.324219 190.800781 C 329.867188 191.214844 329.386719 191.613281 328.917969 192.023438 C 328.246094 192.609375 327.582031 193.203125 326.882812 193.78125 C 326.253906 194.308594 325.589844 194.816406 324.9375 195.328125 C 324.375 195.777344 323.828125 196.230469 323.25 196.671875 C 322.003906 197.621094 320.726562 198.554688 319.414062 199.46875 C 315.804688 201.996094 312.011719 204.34375 308.070312 206.519531 C 300.609375 198.761719 291.832031 191.460938 281.851562 184.816406 C 276.652344 181.355469 271.222656 178.171875 265.644531 175.210938 C 279.308594 171.410156 291.882812 165.792969 302.59375 158.304688 C 305.070312 156.570312 307.40625 154.757812 309.609375 152.878906 C 321.207031 161.894531 330.984375 171.761719 338.738281 182.160156 C 338.691406 182.214844 338.644531 182.269531 338.597656 182.320312 C 337.949219 183.074219 337.300781 183.832031 336.617188 184.570312 Z M 146.789062 112.613281 C 143.710938 110.5625 140.851562 108.390625 138.179688 106.144531 C 179 102.457031 223.125 108.9375 261.933594 125.316406 C 228.0625 139.332031 180.082031 134.773438 146.789062 112.613281 Z M 146.132812 113.628906 C 166.921875 127.46875 193.40625 134.507812 218.6875 134.507812 C 234.671875 134.507812 250.167969 131.675781 263.449219 125.984375 C 275.703125 131.257812 287.425781 137.492188 298.308594 144.738281 C 301.894531 147.128906 305.339844 149.589844 308.644531 152.121094 C 306.527344 153.914062 304.296875 155.648438 301.929688 157.304688 C 291 164.949219 278.101562 170.617188 264.089844 174.386719 C 220.792969 151.890625 167.515625 144.285156 121.207031 152.203125 C 120.546875 151.777344 119.871094 151.371094 119.21875 150.9375 C 104.59375 141.203125 93.183594 129.75 85.492188 117.488281 C 101.339844 111.777344 118.5625 108.027344 136.472656 106.28125 C 139.441406 108.847656 142.652344 111.308594 146.132812 113.628906 Z M 262.382812 174.84375 C 218.253906 186.148438 163.375 178.628906 122.730469 153.171875 C 168.050781 145.71875 219.933594 153.125 262.382812 174.84375 Z M 242.238281 217.296875 C 246.507812 219.460938 250.644531 221.824219 254.660156 224.339844 C 209.332031 231.792969 157.449219 224.386719 114.992188 202.664062 C 126.605469 199.6875 138.953125 198 151.605469 197.613281 C 182.28125 196.679688 214.660156 203.316406 242.238281 217.296875 Z M 75.46875 220.195312 C 86.398438 212.550781 99.296875 206.882812 113.3125 203.117188 C 145.492188 219.835938 183.167969 228.347656 219.421875 228.347656 C 231.933594 228.347656 244.261719 227.3125 256.144531 225.28125 C 256.808594 225.710938 257.492188 226.121094 258.152344 226.5625 C 272.78125 236.300781 284.195312 247.757812 291.882812 260.027344 C 276.039062 265.734375 258.820312 269.484375 240.914062 271.230469 C 237.941406 268.664062 234.730469 266.199219 231.246094 263.878906 C 197.300781 241.28125 148.191406 236.828125 113.910156 251.523438 C 101.664062 246.25 89.945312 240.019531 79.066406 232.773438 C 75.480469 230.386719 72.035156 227.925781 68.734375 225.390625 C 70.855469 223.59375 73.089844 221.855469 75.46875 220.195312 Z M 115.433594 252.191406 C 149.304688 238.167969 197.296875 242.722656 230.589844 264.890625 C 233.675781 266.945312 236.535156 269.117188 239.214844 271.367188 C 198.382812 275.058594 154.246094 268.574219 115.433594 252.191406 Z M 256.425781 224.046875 C 248.574219 219.03125 240.195312 214.664062 231.433594 211.003906 C 230.390625 210.566406 229.328125 210.167969 228.277344 209.75 C 227.382812 209.394531 226.496094 209.023438 225.597656 208.683594 C 192.222656 196.097656 154.3125 193.074219 121.410156 199.945312 C 118.71875 200.503906 116.078125 201.15625 113.460938 201.851562 C 107.507812 198.742188 101.730469 195.371094 96.207031 191.695312 C 86.402344 185.167969 77.773438 178.011719 70.421875 170.40625 C 85.441406 162.289062 102.632812 156.648438 120.953125 153.464844 C 149.667969 171.8125 185.65625 181.164062 220.070312 181.164062 C 235.261719 181.164062 250.136719 179.335938 263.945312 175.675781 C 269.886719 178.78125 275.65625 182.144531 281.171875 185.816406 C 290.972656 192.34375 299.605469 199.5 306.957031 207.105469 C 291.9375 215.222656 274.746094 220.863281 256.425781 224.046875 Z M 328.410156 241.453125 C 317.832031 248.851562 305.894531 254.878906 293.035156 259.613281 C 285.257812 247.117188 273.675781 235.460938 258.824219 225.570312 C 258.515625 225.367188 258.191406 225.175781 257.882812 224.972656 C 275.980469 221.714844 292.957031 216.074219 307.808594 208.007812 C 317.484375 218.207031 324.859375 229.191406 329.660156 240.535156 C 329.238281 240.839844 328.839844 241.15625 328.410156 241.453125 Z M 354.929688 152.496094 C 354.753906 153.125 354.554688 153.742188 354.363281 154.363281 C 354.160156 155.023438 353.964844 155.6875 353.742188 156.34375 C 353.542969 156.929688 353.320312 157.503906 353.105469 158.082031 C 352.851562 158.769531 352.605469 159.457031 352.332031 160.136719 C 352.117188 160.667969 351.878906 161.191406 351.652344 161.714844 C 351.34375 162.433594 351.039062 163.152344 350.707031 163.859375 C 350.480469 164.339844 350.234375 164.8125 349.996094 165.289062 C 349.628906 166.03125 349.265625 166.773438 348.871094 167.507812 C 348.636719 167.945312 348.378906 168.375 348.136719 168.808594 C 347.707031 169.566406 347.285156 170.332031 346.828125 171.082031 C 346.585938 171.480469 346.324219 171.871094 346.070312 172.265625 C 345.582031 173.039062 345.097656 173.816406 344.578125 174.578125 C 344.328125 174.945312 344.058594 175.300781 343.800781 175.667969 C 343.253906 176.445312 342.703125 177.226562 342.125 177.992188 C 341.863281 178.335938 341.582031 178.675781 341.316406 179.015625 C 340.738281 179.753906 340.160156 180.492188 339.554688 181.21875 C 331.800781 170.863281 322.066406 161.042969 310.539062 152.058594 C 311.453125 151.261719 312.355469 150.457031 313.21875 149.632812 C 321.488281 141.730469 327.429688 132.738281 330.863281 123.082031 C 340.613281 132 348.777344 141.546875 355.1875 151.488281 C 355.097656 151.824219 355.023438 152.164062 354.929688 152.496094 Z M 312.367188 148.792969 C 311.472656 149.648438 310.535156 150.480469 309.585938 151.3125 C 306.203125 148.710938 302.671875 146.183594 298.992188 143.734375 C 288.359375 136.652344 276.921875 130.539062 264.976562 125.332031 C 269.515625 123.289062 273.777344 120.898438 277.691406 118.160156 C 283.246094 114.273438 287.851562 109.851562 291.429688 105.035156 C 293.144531 102.726562 294.617188 100.320312 295.851562 97.84375 C 300.066406 100.253906 304.207031 102.765625 308.21875 105.4375 C 316.121094 110.699219 323.355469 116.3125 329.898438 122.207031 C 326.558594 131.878906 320.640625 140.886719 312.367188 148.792969 Z M 115.859375 77.003906 C 119.113281 87.039062 125.753906 96.710938 135.238281 105.214844 C 117.542969 107.019531 100.527344 110.765625 84.851562 116.433594 C 84.402344 115.691406 83.925781 114.957031 83.503906 114.210938 C 77.722656 103.984375 74.554688 93.257812 74.28125 82.527344 C 86.640625 76.925781 100.03125 72.613281 114.101562 69.609375 C 114.488281 72.085938 115.0625 74.558594 115.859375 77.003906 Z M 82.425781 114.730469 C 82.828125 115.441406 83.28125 116.140625 83.707031 116.84375 C 70.824219 121.601562 58.863281 127.648438 48.257812 135.066406 C 47.90625 135.3125 47.578125 135.574219 47.230469 135.820312 C 43.386719 126.375 41.328125 116.6875 41.214844 107.007812 C 41.199219 105.597656 41.242188 104.195312 41.308594 102.792969 C 43.953125 100.609375 46.699219 98.476562 49.613281 96.4375 C 56.867188 91.363281 64.753906 86.9375 73.101562 83.074219 C 73.472656 93.804688 76.660156 104.519531 82.425781 114.730469 Z M 48.96875 136.058594 C 59.546875 128.660156 71.488281 122.632812 84.347656 117.902344 C 92.125 130.398438 103.707031 142.058594 118.566406 151.953125 C 118.867188 152.152344 119.179688 152.335938 119.480469 152.53125 C 101.386719 155.789062 84.410156 161.429688 69.558594 169.492188 C 59.890625 159.300781 52.519531 148.320312 47.71875 136.976562 C 48.140625 136.675781 48.539062 136.359375 48.96875 136.058594 Z M 68.453125 170.074219 C 64.5625 172.234375 60.824219 174.558594 57.253906 177.054688 C 49.761719 182.296875 43.3125 188.117188 37.914062 194.382812 C 30.523438 184.269531 25.046875 173.664062 21.65625 162.851562 C 28.097656 153.65625 36.5 145.195312 46.71875 137.714844 C 51.539062 149.003906 58.871094 159.925781 68.453125 170.074219 Z M 57.964844 178.042969 C 61.578125 175.515625 65.371094 173.164062 69.3125 170.988281 C 76.773438 178.746094 85.550781 186.042969 95.53125 192.6875 C 100.738281 196.15625 106.175781 199.34375 111.765625 202.308594 C 98.082031 206.109375 85.488281 211.722656 74.769531 219.21875 C 72.292969 220.949219 69.964844 222.757812 67.765625 224.632812 C 56.175781 215.625 46.40625 205.769531 38.65625 195.378906 C 44.023438 189.109375 50.46875 183.28125 57.964844 178.042969 Z M 67.796875 226.199219 C 71.179688 228.800781 74.707031 231.328125 78.386719 233.777344 C 89.027344 240.859375 100.46875 246.980469 112.417969 252.183594 C 107.878906 254.230469 103.605469 256.609375 99.6875 259.347656 C 95.980469 261.9375 92.699219 264.769531 89.863281 267.796875 C 86.402344 271.484375 83.613281 275.472656 81.519531 279.671875 C 77.308594 277.261719 73.167969 274.75 69.15625 272.078125 C 61.257812 266.820312 54.023438 261.203125 47.476562 255.308594 C 51.179688 244.589844 58.066406 234.695312 67.796875 226.199219 Z M 78.191406 299.199219 C 78.121094 293 79.457031 287 82.050781 281.375 C 95.601562 289.027344 110.09375 295.359375 125.140625 300.359375 C 123.128906 302.621094 121.542969 305.066406 120.476562 307.664062 C 119.316406 310.484375 118.734375 313.46875 118.769531 316.542969 C 118.828125 321.929688 120.789062 327.308594 124.359375 332.273438 C 109.101562 327.351562 94.398438 321.023438 80.710938 313.285156 C 79.117188 308.640625 78.246094 303.917969 78.191406 299.199219 Z M 136.710938 342.273438 L 136.722656 342.257812 C 133.246094 339.941406 130.261719 337.363281 127.808594 334.621094 C 152.078125 342.027344 177.613281 345.898438 202.617188 346.167969 C 184.914062 356.691406 156.089844 355.171875 136.71875 342.277344 C 136.714844 342.277344 136.714844 342.273438 136.710938 342.273438 Z M 206.558594 344.992188 C 213.867188 339.542969 217.863281 332.285156 217.773438 324.414062 C 217.734375 321.011719 216.925781 317.613281 215.445312 314.316406 C 231.484375 314.105469 247.234375 312.453125 262.257812 309.34375 C 262.460938 310.953125 262.605469 312.566406 262.625 314.183594 C 262.730469 323.496094 259.707031 332.367188 253.914062 340.179688 C 238.746094 343.335938 222.789062 344.917969 206.558594 344.992188 Z M 263.828125 314.191406 C 263.808594 312.488281 263.652344 310.789062 263.433594 309.089844 C 277.4375 306.109375 290.800781 301.886719 303.128906 296.347656 C 303.15625 307.148438 300.179688 317.511719 294.503906 326.957031 C 282.480469 332.519531 269.421875 336.796875 255.683594 339.777344 C 261.097656 332.035156 263.933594 323.328125 263.828125 314.191406 Z M 263.28125 307.90625 C 262.542969 303.148438 261.050781 298.421875 258.828125 293.816406 C 255.148438 286.1875 249.492188 278.882812 242.128906 272.285156 C 259.824219 270.476562 276.859375 266.761719 292.535156 261.097656 C 299.136719 271.984375 302.800781 283.480469 303.097656 294.988281 C 290.738281 300.59375 277.351562 304.902344 263.28125 307.90625 Z M 293.675781 260.664062 C 306.558594 255.910156 318.519531 249.859375 329.121094 242.441406 C 329.472656 242.195312 329.800781 241.9375 330.148438 241.6875 C 333.992188 251.136719 336.050781 260.824219 336.164062 270.503906 C 336.179688 271.917969 336.136719 273.320312 336.070312 274.722656 C 333.425781 276.90625 330.679688 279.042969 327.761719 281.082031 C 320.511719 286.152344 312.625 290.578125 304.277344 294.441406 C 303.882812 282.960938 300.21875 271.511719 293.675781 260.664062 Z M 299.1875 78.308594 C 299.257812 84.507812 297.925781 90.503906 295.328125 96.125 C 281.777344 88.476562 267.277344 82.140625 252.226562 77.136719 C 254.242188 74.875 255.828125 72.429688 256.894531 69.832031 C 258.054688 67.011719 258.636719 64.027344 258.601562 60.953125 C 258.539062 55.574219 256.585938 50.199219 253.023438 45.242188 C 268.28125 50.164062 282.984375 56.492188 296.671875 64.234375 C 298.261719 68.875 299.132812 73.589844 299.1875 78.308594 Z M 251.734375 43.550781 C 248.996094 40.167969 245.5 37.011719 241.316406 34.230469 C 221.015625 20.714844 190.472656 19.492188 172.578125 31.292969 C 156.148438 31.25 139.988281 32.789062 124.601562 35.882812 C 127.929688 31.722656 132.046875 27.875 136.933594 24.453125 C 170.113281 1.25 228.527344 3.292969 267.148438 29.003906 C 281.308594 38.429688 291.261719 50.105469 296.015625 62.429688 C 282.117188 54.695312 267.191406 48.417969 251.734375 43.550781 Z M 170.816406 32.523438 C 163.519531 37.96875 159.527344 45.21875 159.617188 53.082031 C 159.625 53.695312 159.65625 54.308594 159.710938 54.921875 C 159.964844 57.714844 160.734375 60.496094 161.949219 63.207031 C 145.910156 63.417969 130.144531 65.039062 115.121094 68.152344 C 114.917969 66.542969 114.773438 64.9375 114.757812 63.324219 C 114.652344 54.015625 117.671875 45.144531 123.460938 37.335938 C 138.628906 34.179688 154.585938 32.59375 170.816406 32.523438 Z M 37.847656 196.320312 C 45.597656 206.664062 55.324219 216.472656 66.835938 225.445312 C 57.175781 233.917969 50.300781 243.765625 46.511719 254.429688 C 36.761719 245.511719 28.59375 235.960938 22.1875 226.015625 C 24.992188 215.421875 30.285156 205.40625 37.847656 196.320312 Z M 44.296875 274.847656 C 44.226562 268.582031 45.179688 262.46875 47.0625 256.585938 C 53.542969 262.382812 60.691406 267.910156 68.472656 273.09375 C 72.535156 275.796875 76.734375 278.328125 81.003906 280.769531 C 78.296875 286.589844 76.910156 292.804688 76.980469 299.230469 C 77.03125 303.628906 77.773438 308.027344 79.125 312.359375 C 75.273438 310.140625 71.484375 307.839844 67.8125 305.394531 C 59.832031 300.082031 52.554688 294.390625 46.011719 288.40625 C 44.941406 283.910156 44.347656 279.378906 44.296875 274.847656 Z M 330.664062 239.796875 C 325.84375 228.503906 318.503906 217.574219 308.914062 207.417969 C 312.804688 205.257812 316.554688 202.945312 320.125 200.449219 C 321.453125 199.519531 322.746094 198.574219 324.011719 197.613281 C 324.550781 197.199219 325.0625 196.773438 325.59375 196.355469 C 326.296875 195.800781 327.011719 195.25 327.695312 194.683594 C 328.359375 194.132812 328.992188 193.5625 329.636719 193 C 330.148438 192.554688 330.679688 192.113281 331.179688 191.660156 C 331.886719 191.019531 332.558594 190.363281 333.238281 189.714844 C 333.644531 189.324219 334.070312 188.941406 334.46875 188.546875 C 335.175781 187.847656 335.84375 187.132812 336.519531 186.421875 C 336.863281 186.0625 337.222656 185.707031 337.558594 185.34375 C 338.21875 184.625 338.847656 183.890625 339.480469 183.160156 C 346.859375 193.265625 352.332031 203.859375 355.71875 214.664062 C 349.277344 223.859375 340.878906 232.320312 330.664062 239.796875 Z M 340.308594 182.21875 C 340.355469 182.160156 340.402344 182.105469 340.449219 182.046875 C 341.078125 181.296875 341.671875 180.53125 342.269531 179.765625 C 342.558594 179.398438 342.859375 179.039062 343.136719 178.667969 C 343.714844 177.90625 344.257812 177.132812 344.800781 176.355469 C 345.074219 175.972656 345.359375 175.59375 345.625 175.203125 C 346.140625 174.445312 346.625 173.671875 347.109375 172.902344 C 347.375 172.484375 347.648438 172.074219 347.902344 171.65625 C 348.359375 170.90625 348.78125 170.144531 349.207031 169.386719 C 349.464844 168.933594 349.730469 168.484375 349.976562 168.027344 C 350.367188 167.300781 350.726562 166.558594 351.09375 165.824219 C 351.339844 165.320312 351.601562 164.828125 351.835938 164.320312 C 352.167969 163.617188 352.46875 162.90625 352.773438 162.195312 C 353.011719 161.644531 353.261719 161.097656 353.484375 160.542969 C 353.757812 159.867188 354.003906 159.179688 354.253906 158.492188 C 354.476562 157.894531 354.707031 157.300781 354.910156 156.699219 C 355.132812 156.042969 355.328125 155.382812 355.53125 154.726562 C 355.714844 154.125 355.914062 153.527344 356.085938 152.921875 C 362.296875 162.851562 366.78125 173.160156 369.359375 183.609375 C 367.195312 194.082031 362.894531 204.09375 356.609375 213.390625 C 353.136719 202.695312 347.644531 192.214844 340.308594 182.21875 Z M 337.3125 273.707031 C 337.347656 272.640625 337.394531 271.574219 337.382812 270.5 C 337.269531 260.566406 335.128906 250.632812 331.152344 240.949219 C 341.292969 233.5625 349.683594 225.21875 356.175781 216.152344 C 358.441406 223.828125 359.660156 231.601562 359.75 239.371094 C 359.785156 242.40625 359.609375 245.410156 359.300781 248.394531 C 353.714844 257.519531 346.359375 266.035156 337.3125 273.707031 Z M 369.507812 152.152344 C 369.652344 152.921875 369.796875 153.71875 369.941406 154.539062 C 370.59375 158.601562 370.960938 162.675781 371.007812 166.75 C 371.0625 171.496094 370.652344 176.175781 369.875 180.78125 C 367.097656 170.726562 362.597656 160.828125 356.503906 151.289062 C 356.539062 151.15625 356.566406 151.019531 356.601562 150.886719 C 356.773438 150.195312 356.949219 149.507812 357.101562 148.8125 C 357.234375 148.203125 357.34375 147.585938 357.460938 146.96875 C 357.570312 146.398438 357.699219 145.832031 357.792969 145.257812 C 357.820312 145.097656 357.835938 144.941406 357.859375 144.78125 C 357.882812 144.648438 357.914062 144.519531 357.933594 144.386719 C 358 143.933594 358.042969 143.480469 358.101562 143.027344 C 358.207031 142.257812 358.3125 141.488281 358.390625 140.714844 C 358.449219 140.125 358.488281 139.53125 358.535156 138.9375 C 358.59375 138.175781 358.652344 137.417969 358.6875 136.660156 C 358.71875 136.03125 358.726562 135.402344 358.738281 134.773438 C 358.753906 134.054688 358.769531 133.335938 358.761719 132.617188 C 358.753906 131.9375 358.726562 131.257812 358.703125 130.578125 C 358.679688 129.914062 358.65625 129.246094 358.613281 128.582031 C 358.566406 127.847656 358.496094 127.109375 358.429688 126.375 C 358.371094 125.765625 358.316406 125.160156 358.246094 124.554688 C 358.152344 123.765625 358.039062 122.976562 357.921875 122.1875 C 357.878906 121.921875 357.851562 121.652344 357.808594 121.382812 C 362.578125 129.632812 366.109375 138.128906 368.3125 146.730469 C 368.722656 148.53125 369.128906 150.363281 369.507812 152.152344 Z M 356.449219 120.742188 C 356.539062 121.261719 356.617188 121.78125 356.695312 122.300781 C 356.816406 123.105469 356.929688 123.90625 357.027344 124.707031 C 357.09375 125.28125 357.144531 125.851562 357.199219 126.425781 C 357.269531 127.175781 357.339844 127.925781 357.386719 128.675781 C 357.429688 129.304688 357.449219 129.929688 357.472656 130.558594 C 357.5 131.253906 357.527344 131.953125 357.535156 132.648438 C 357.539062 133.328125 357.527344 134.011719 357.511719 134.695312 C 357.5 135.339844 357.492188 135.984375 357.460938 136.625 C 357.429688 137.351562 357.371094 138.074219 357.316406 138.792969 C 357.269531 139.402344 357.230469 140.011719 357.167969 140.617188 C 357.09375 141.355469 356.992188 142.09375 356.894531 142.828125 C 356.8125 143.425781 356.742188 144.023438 356.644531 144.621094 C 356.535156 145.320312 356.398438 146.015625 356.265625 146.710938 C 356.144531 147.335938 356.035156 147.964844 355.898438 148.585938 C 355.804688 149.019531 355.691406 149.445312 355.585938 149.875 C 349.132812 140.058594 340.988281 130.636719 331.308594 121.835938 C 333.351562 115.664062 334.371094 109.226562 334.296875 102.628906 C 334.25 98.585938 333.75 94.542969 332.90625 90.527344 C 342.226562 99.265625 349.964844 108.617188 355.988281 118.335938 C 356.152344 119.140625 356.3125 119.941406 356.449219 120.742188 Z M 333.082031 102.667969 C 333.152344 108.933594 332.199219 115.050781 330.3125 120.933594 C 323.835938 115.132812 316.6875 109.605469 308.90625 104.425781 C 304.839844 101.722656 300.644531 99.175781 296.375 96.734375 C 299.082031 90.914062 300.46875 84.699219 300.398438 78.269531 C 300.347656 73.878906 299.609375 69.484375 298.257812 65.15625 C 302.105469 67.375 305.894531 69.675781 309.566406 72.121094 C 317.546875 77.433594 324.824219 83.125 331.367188 89.105469 C 332.4375 93.605469 333.03125 98.136719 333.082031 102.667969 Z M 121.691406 37.734375 C 116.28125 45.472656 113.449219 54.179688 113.554688 63.3125 C 113.574219 65.011719 113.726562 66.710938 113.945312 68.40625 C 99.933594 71.386719 86.585938 75.65625 74.25 81.199219 C 74.214844 70.386719 77.191406 60.011719 82.875 50.554688 C 94.898438 44.992188 107.953125 40.714844 121.691406 37.734375 Z M 73.03125 81.671875 C 73.03125 81.703125 73.035156 81.734375 73.035156 81.761719 C 64.453125 85.703125 56.347656 90.234375 48.90625 95.4375 C 46.289062 97.265625 43.820312 99.175781 41.421875 101.121094 C 42.179688 90.53125 45.296875 80.339844 50.625 70.871094 C 53.636719 68.292969 56.832031 65.8125 60.226562 63.441406 C 66.648438 58.949219 73.582031 54.980469 80.902344 51.472656 C 75.621094 60.835938 72.910156 71.046875 73.03125 81.671875 Z M 40.066406 103.808594 C 40.03125 104.871094 39.984375 105.933594 39.996094 107.003906 C 40.109375 116.9375 42.25 126.875 46.226562 136.558594 C 36.085938 143.945312 27.695312 152.292969 21.203125 161.359375 C 18.9375 153.683594 17.714844 145.914062 17.625 138.144531 C 17.59375 135.109375 17.769531 132.105469 18.074219 129.125 C 23.660156 119.996094 31.015625 111.480469 40.066406 103.808594 Z M 16.402344 138.144531 C 16.496094 146.34375 17.835938 154.542969 20.3125 162.628906 C 14.152344 171.542969 9.796875 181.117188 7.386719 191.140625 C 6.164062 185.425781 5.496094 179.675781 5.429688 173.925781 C 5.257812 158.992188 9.117188 144.632812 16.628906 131.484375 C 16.472656 133.691406 16.375 135.910156 16.402344 138.144531 Z M 20.769531 164.121094 C 24.246094 174.824219 29.742188 185.3125 37.089844 195.316406 C 29.566406 204.292969 24.265625 214.183594 21.320312 224.640625 C 15.097656 214.695312 10.601562 204.375 8.019531 193.90625 C 10.183594 183.433594 14.484375 173.417969 20.769531 164.121094 Z M 19.84375 244.886719 C 19.777344 239.023438 20.464844 233.273438 21.804688 227.667969 C 28.257812 237.472656 36.394531 246.882812 46.070312 255.679688 C 44.027344 261.847656 43.007812 268.28125 43.082031 274.871094 C 43.128906 278.921875 43.628906 282.96875 44.476562 286.992188 C 35.167969 278.265625 27.4375 268.925781 21.417969 259.222656 C 20.429688 254.460938 19.898438 249.671875 19.84375 244.886719 Z M 46.59375 290.589844 C 52.8125 296.144531 59.667969 301.441406 67.128906 306.40625 C 71.207031 309.121094 75.421875 311.664062 79.714844 314.105469 C 83.707031 325.433594 91.996094 336.246094 103.828125 345.390625 C 93.664062 340.878906 83.921875 335.621094 74.835938 329.570312 C 70.695312 326.816406 66.769531 323.945312 63.054688 320.976562 C 55.054688 311.402344 49.480469 301.113281 46.59375 290.589844 Z M 222.335938 363.699219 C 229.171875 361.195312 235.515625 357.992188 241.136719 354.0625 C 246.578125 350.257812 251.097656 345.933594 254.644531 341.230469 C 268.296875 338.359375 281.320312 334.261719 293.332031 328.875 C 288.136719 336.882812 280.964844 344.191406 271.96875 350.484375 C 270.769531 351.320312 269.535156 352.121094 268.292969 352.910156 C 254.082031 358.347656 238.527344 361.917969 222.335938 363.699219 Z M 295.335938 327.933594 C 303.339844 324.210938 310.898438 319.945312 317.863281 315.074219 C 320.3125 313.363281 322.625 311.574219 324.878906 309.757812 C 318.480469 320.007812 309.476562 329.351562 298.042969 337.347656 C 290.628906 342.53125 282.464844 346.960938 273.753906 350.683594 C 282.949219 344.058594 290.203125 336.363281 295.335938 327.933594 Z M 317.152344 314.074219 C 310.730469 318.566406 303.792969 322.539062 296.472656 326.042969 C 301.757812 316.679688 304.472656 306.460938 304.347656 295.832031 C 304.347656 295.8125 304.347656 295.796875 304.347656 295.777344 C 312.933594 291.839844 321.027344 287.285156 328.472656 282.078125 C 331.089844 280.25 333.558594 278.339844 335.957031 276.394531 C 335.199219 286.988281 332.078125 297.175781 326.75 306.648438 C 323.742188 309.222656 320.546875 311.703125 317.152344 314.074219 Z M 337.277344 275.320312 C 346.03125 268.023438 353.3125 259.972656 358.949219 251.332031 C 356.171875 270.960938 346 289.160156 329.398438 304.269531 C 334.027344 295.140625 336.71875 285.410156 337.277344 275.320312 Z M 7.507812 223.453125 C 6.804688 219.234375 6.421875 214.996094 6.371094 210.761719 C 6.316406 206.019531 6.726562 201.339844 7.5 196.738281 C 10.28125 206.792969 14.785156 216.691406 20.878906 226.234375 C 19.320312 232.296875 18.546875 238.539062 18.621094 244.90625 C 18.664062 248.679688 19.003906 252.457031 19.621094 256.21875 C 15.015625 248.265625 11.5625 240.085938 9.335938 231.800781 C 8.695312 229.03125 8.0625 226.144531 7.507812 223.453125 Z M 362.402344 126.546875 C 362.777344 127.597656 363.136719 128.632812 363.484375 129.644531 C 361.648438 125.675781 359.539062 121.75 357.152344 117.882812 C 357.058594 117.425781 356.960938 116.964844 356.859375 116.507812 C 356.660156 115.636719 356.445312 114.769531 356.21875 113.902344 C 356.09375 113.429688 355.96875 112.957031 355.839844 112.484375 C 355.585938 111.59375 355.316406 110.703125 355.035156 109.8125 C 354.890625 109.359375 354.746094 108.910156 354.597656 108.460938 C 354.414062 107.914062 354.238281 107.367188 354.042969 106.824219 C 354.574219 107.90625 355.113281 109.027344 355.648438 110.152344 C 356.6875 112.457031 357.832031 115.101562 358.964844 117.8125 C 360.148438 120.707031 361.347656 123.75 362.402344 126.546875 Z M 18.925781 116.328125 C 19.160156 115.800781 19.414062 115.238281 19.675781 114.660156 C 18.328125 119.257812 17.386719 123.949219 16.878906 128.726562 C 14.359375 132.863281 12.175781 137.117188 10.394531 141.484375 C 10.785156 139.941406 11.167969 138.480469 11.515625 137.191406 C 12.730469 133.292969 14.105469 129.113281 15.359375 125.488281 C 16.277344 123.003906 17.273438 120.34375 18.144531 118.195312 C 18.359375 117.667969 18.605469 117.074219 18.863281 116.464844 C 18.886719 116.417969 18.90625 116.371094 18.925781 116.328125 Z M 4.453125 198.648438 C 4.320312 194.738281 4.230469 189.386719 4.292969 184.5 C 4.34375 182.953125 4.40625 181.367188 4.480469 179.78125 C 4.859375 184.5 5.617188 189.214844 6.757812 193.902344 C 5.851562 198.363281 5.347656 202.910156 5.214844 207.515625 C 5.023438 205.824219 4.851562 204.195312 4.710938 202.71875 C 4.710938 202.695312 4.707031 202.667969 4.707031 202.644531 C 4.589844 201.238281 4.492188 199.863281 4.453125 198.648438 Z M 20.910156 265.609375 C 19.765625 263.015625 18.535156 260.117188 17.359375 257.238281 C 16.316406 254.5 15.183594 251.394531 14.117188 248.347656 C 15.910156 252.171875 17.960938 255.960938 20.265625 259.691406 C 21.070312 263.511719 22.160156 267.316406 23.535156 271.085938 C 22.839844 269.691406 22.164062 268.289062 21.503906 266.875 C 21.304688 266.457031 21.109375 266.03125 20.910156 265.609375 Z M 57.292969 318.355469 C 56.320312 317.367188 55.296875 316.308594 54.214844 315.175781 C 53.878906 314.816406 53.546875 314.460938 53.195312 314.082031 C 56.050781 316.753906 59.070312 319.363281 62.246094 321.902344 C 64.3125 324.363281 66.53125 326.777344 68.902344 329.136719 C 66.742188 327.285156 64.871094 325.609375 63.308594 324.175781 C 61.015625 322.03125 58.878906 319.945312 57.292969 318.355469 Z M 57.292969 318.355469 " clip-rule="nonzero"/></clipPath><linearGradient x1="232.698354" gradientTransform="matrix(0.742919, 0, 0, -0.743458, 2.960303, 374.628258)" y1="518.887172" x2="267.110364" gradientUnits="userSpaceOnUse" y2="-15.500464" id="0aa1fd2032"><stop stop-opacity="1" stop-color="rgb(97.299194%, 92.199707%, 66.299438%)" offset="0"/><stop stop-opacity="1" stop-color="rgb(97.299194%, 92.199707%, 66.299438%)" offset="0.03125"/><stop stop-opacity="1" stop-color="rgb(97.251892%, 91.751099%, 65.950012%)" offset="0.0351562"/><stop stop-opacity="1" stop-color="rgb(97.20459%, 91.30249%, 65.602112%)" offset="0.0390625"/><stop stop-opacity="1" stop-color="rgb(97.155762%, 90.83252%, 65.237427%)" offset="0.0429688"/><stop stop-opacity="1" stop-color="rgb(97.106934%, 90.364075%, 64.872742%)" offset="0.046875"/><stop stop-opacity="1" stop-color="rgb(97.05658%, 89.894104%, 64.508057%)" offset="0.0507812"/><stop stop-opacity="1" stop-color="rgb(97.007751%, 89.425659%, 64.143372%)" offset="0.0546875"/><stop stop-opacity="1" stop-color="rgb(96.957397%, 88.955688%, 63.778687%)" offset="0.0585938"/><stop stop-opacity="1" stop-color="rgb(96.908569%, 88.487244%, 63.414001%)" offset="0.0625"/><stop stop-opacity="1" stop-color="rgb(96.858215%, 88.017273%, 63.049316%)" offset="0.0664062"/><stop stop-opacity="1" stop-color="rgb(96.809387%, 87.547302%, 62.684631%)" offset="0.0703125"/><stop stop-opacity="1" stop-color="rgb(96.760559%, 87.077332%, 62.31842%)" offset="0.0742188"/><stop stop-opacity="1" stop-color="rgb(96.711731%, 86.608887%, 61.953735%)" offset="0.078125"/><stop stop-opacity="1" stop-color="rgb(96.661377%, 86.138916%, 61.58905%)" offset="0.0820312"/><stop stop-opacity="1" stop-color="rgb(96.612549%, 85.670471%, 61.224365%)" offset="0.0859375"/><stop stop-opacity="1" stop-color="rgb(96.562195%, 85.2005%, 60.85968%)" offset="0.0898437"/><stop stop-opacity="1" stop-color="rgb(96.513367%, 84.73053%, 60.494995%)" offset="0.09375"/><stop stop-opacity="1" stop-color="rgb(96.464539%, 84.260559%, 60.13031%)" offset="0.0976562"/><stop stop-opacity="1" stop-color="rgb(96.41571%, 83.792114%, 59.765625%)" offset="0.101562"/><stop stop-opacity="1" stop-color="rgb(96.365356%, 83.322144%, 59.40094%)" offset="0.105469"/><stop stop-opacity="1" stop-color="rgb(96.316528%, 82.853699%, 59.036255%)" offset="0.109375"/><stop stop-opacity="1" stop-color="rgb(96.266174%, 82.383728%, 58.670044%)" offset="0.113281"/><stop stop-opacity="1" stop-color="rgb(96.217346%, 81.913757%, 58.305359%)" offset="0.117187"/><stop stop-opacity="1" stop-color="rgb(96.166992%, 81.443787%, 57.940674%)" offset="0.121094"/><stop stop-opacity="1" stop-color="rgb(96.118164%, 80.975342%, 57.575989%)" offset="0.125"/><stop stop-opacity="1" stop-color="rgb(96.069336%, 80.505371%, 57.211304%)" offset="0.128906"/><stop stop-opacity="1" stop-color="rgb(96.020508%, 80.036926%, 56.846619%)" offset="0.132812"/><stop stop-opacity="1" stop-color="rgb(95.970154%, 79.566956%, 56.481934%)" offset="0.136719"/><stop stop-opacity="1" stop-color="rgb(95.921326%, 79.098511%, 56.117249%)" offset="0.140625"/><stop stop-opacity="1" stop-color="rgb(95.870972%, 78.62854%, 55.752563%)" offset="0.144531"/><stop stop-opacity="1" stop-color="rgb(95.822144%, 78.158569%, 55.387878%)" offset="0.148437"/><stop stop-opacity="1" stop-color="rgb(95.773315%, 77.688599%, 55.021667%)" offset="0.152344"/><stop stop-opacity="1" stop-color="rgb(95.724487%, 77.220154%, 54.656982%)" offset="0.15625"/><stop stop-opacity="1" stop-color="rgb(95.674133%, 76.750183%, 54.292297%)" offset="0.160156"/><stop stop-opacity="1" stop-color="rgb(95.625305%, 76.281738%, 53.927612%)" offset="0.164062"/><stop stop-opacity="1" stop-color="rgb(95.574951%, 75.811768%, 53.562927%)" offset="0.167969"/><stop stop-opacity="1" stop-color="rgb(95.526123%, 75.341797%, 53.198242%)" offset="0.171875"/><stop stop-opacity="1" stop-color="rgb(95.475769%, 74.871826%, 52.833557%)" offset="0.175781"/><stop stop-opacity="1" stop-color="rgb(95.426941%, 74.403381%, 52.468872%)" offset="0.179687"/><stop stop-opacity="1" stop-color="rgb(95.378113%, 73.933411%, 52.104187%)" offset="0.183594"/><stop stop-opacity="1" stop-color="rgb(95.329285%, 73.464966%, 51.739502%)" offset="0.1875"/><stop stop-opacity="1" stop-color="rgb(95.278931%, 72.994995%, 51.373291%)" offset="0.191406"/><stop stop-opacity="1" stop-color="rgb(95.230103%, 72.525024%, 51.008606%)" offset="0.195312"/><stop stop-opacity="1" stop-color="rgb(95.179749%, 72.055054%, 50.643921%)" offset="0.199219"/><stop stop-opacity="1" stop-color="rgb(95.13092%, 71.586609%, 50.279236%)" offset="0.203125"/><stop stop-opacity="1" stop-color="rgb(95.082092%, 71.116638%, 49.914551%)" offset="0.207031"/><stop stop-opacity="1" stop-color="rgb(95.033264%, 70.648193%, 49.549866%)" offset="0.210937"/><stop stop-opacity="1" stop-color="rgb(94.98291%, 70.178223%, 49.185181%)" offset="0.214844"/><stop stop-opacity="1" stop-color="rgb(94.934082%, 69.708252%, 48.820496%)" offset="0.21875"/><stop stop-opacity="1" stop-color="rgb(94.883728%, 69.238281%, 48.455811%)" offset="0.222656"/><stop stop-opacity="1" stop-color="rgb(94.8349%, 68.769836%, 48.091125%)" offset="0.226562"/><stop stop-opacity="1" stop-color="rgb(94.784546%, 68.299866%, 47.724915%)" offset="0.230469"/><stop stop-opacity="1" stop-color="rgb(94.735718%, 67.831421%, 47.360229%)" offset="0.234375"/><stop stop-opacity="1" stop-color="rgb(94.68689%, 67.36145%, 46.995544%)" offset="0.238281"/><stop stop-opacity="1" stop-color="rgb(94.638062%, 66.893005%, 46.630859%)" offset="0.242187"/><stop stop-opacity="1" stop-color="rgb(94.587708%, 66.423035%, 46.266174%)" offset="0.246094"/><stop stop-opacity="1" stop-color="rgb(94.538879%, 65.953064%, 45.901489%)" offset="0.25"/><stop stop-opacity="1" stop-color="rgb(94.488525%, 65.483093%, 45.536804%)" offset="0.253906"/><stop stop-opacity="1" stop-color="rgb(94.439697%, 65.014648%, 45.172119%)" offset="0.257812"/><stop stop-opacity="1" stop-color="rgb(94.390869%, 64.544678%, 44.807434%)" offset="0.261719"/><stop stop-opacity="1" stop-color="rgb(94.342041%, 64.076233%, 44.442749%)" offset="0.265625"/><stop stop-opacity="1" stop-color="rgb(94.291687%, 63.606262%, 44.076538%)" offset="0.269531"/><stop stop-opacity="1" stop-color="rgb(94.242859%, 63.136292%, 43.711853%)" offset="0.273437"/><stop stop-opacity="1" stop-color="rgb(94.192505%, 62.666321%, 43.347168%)" offset="0.277344"/><stop stop-opacity="1" stop-color="rgb(94.143677%, 62.197876%, 42.982483%)" offset="0.28125"/><stop stop-opacity="1" stop-color="rgb(94.094849%, 61.727905%, 42.617798%)" offset="0.285156"/><stop stop-opacity="1" stop-color="rgb(94.046021%, 61.25946%, 42.253113%)" offset="0.289062"/><stop stop-opacity="1" stop-color="rgb(93.995667%, 60.78949%, 41.888428%)" offset="0.292969"/><stop stop-opacity="1" stop-color="rgb(93.946838%, 60.319519%, 41.523743%)" offset="0.296875"/><stop stop-opacity="1" stop-color="rgb(93.896484%, 59.849548%, 41.159058%)" offset="0.300781"/><stop stop-opacity="1" stop-color="rgb(93.847656%, 59.381104%, 40.794373%)" offset="0.304687"/><stop stop-opacity="1" stop-color="rgb(93.797302%, 58.911133%, 40.428162%)" offset="0.308594"/><stop stop-opacity="1" stop-color="rgb(93.748474%, 58.442688%, 40.063477%)" offset="0.3125"/><stop stop-opacity="1" stop-color="rgb(93.699646%, 57.972717%, 39.698792%)" offset="0.316406"/><stop stop-opacity="1" stop-color="rgb(93.650818%, 57.504272%, 39.334106%)" offset="0.320312"/><stop stop-opacity="1" stop-color="rgb(93.600464%, 57.034302%, 38.969421%)" offset="0.324219"/><stop stop-opacity="1" stop-color="rgb(93.551636%, 56.564331%, 38.604736%)" offset="0.328125"/><stop stop-opacity="1" stop-color="rgb(93.501282%, 56.09436%, 38.240051%)" offset="0.332031"/><stop stop-opacity="1" stop-color="rgb(93.452454%, 55.625916%, 37.875366%)" offset="0.335937"/><stop stop-opacity="1" stop-color="rgb(93.403625%, 55.155945%, 37.510681%)" offset="0.339844"/><stop stop-opacity="1" stop-color="rgb(93.354797%, 54.6875%, 37.145996%)" offset="0.34375"/><stop stop-opacity="1" stop-color="rgb(93.304443%, 54.217529%, 36.779785%)" offset="0.347656"/><stop stop-opacity="1" stop-color="rgb(93.255615%, 53.747559%, 36.4151%)" offset="0.351562"/><stop stop-opacity="1" stop-color="rgb(93.205261%, 53.277588%, 36.050415%)" offset="0.355469"/><stop stop-opacity="1" stop-color="rgb(93.156433%, 52.809143%, 35.68573%)" offset="0.359375"/><stop stop-opacity="1" stop-color="rgb(93.106079%, 52.339172%, 35.321045%)" offset="0.363281"/><stop stop-opacity="1" stop-color="rgb(93.057251%, 51.870728%, 34.95636%)" offset="0.367187"/><stop stop-opacity="1" stop-color="rgb(93.008423%, 51.400757%, 34.591675%)" offset="0.371094"/><stop stop-opacity="1" stop-color="rgb(92.959595%, 50.930786%, 34.22699%)" offset="0.375"/><stop stop-opacity="1" stop-color="rgb(92.909241%, 50.460815%, 33.862305%)" offset="0.378906"/><stop stop-opacity="1" stop-color="rgb(92.860413%, 49.992371%, 33.49762%)" offset="0.382812"/><stop stop-opacity="1" stop-color="rgb(92.810059%, 49.5224%, 33.131409%)" offset="0.386719"/><stop stop-opacity="1" stop-color="rgb(92.76123%, 49.053955%, 32.766724%)" offset="0.390625"/><stop stop-opacity="1" stop-color="rgb(92.712402%, 48.583984%, 32.402039%)" offset="0.394531"/><stop stop-opacity="1" stop-color="rgb(92.663574%, 48.11554%, 32.037354%)" offset="0.398437"/><stop stop-opacity="1" stop-color="rgb(92.61322%, 47.645569%, 31.672668%)" offset="0.402344"/><stop stop-opacity="1" stop-color="rgb(92.564392%, 47.175598%, 31.307983%)" offset="0.40625"/><stop stop-opacity="1" stop-color="rgb(92.514038%, 46.705627%, 30.943298%)" offset="0.410156"/><stop stop-opacity="1" stop-color="rgb(92.46521%, 46.237183%, 30.578613%)" offset="0.414062"/><stop stop-opacity="1" stop-color="rgb(92.414856%, 45.767212%, 30.213928%)" offset="0.417969"/><stop stop-opacity="1" stop-color="rgb(92.366028%, 45.298767%, 29.849243%)" offset="0.421875"/><stop stop-opacity="1" stop-color="rgb(92.3172%, 44.828796%, 29.483032%)" offset="0.425781"/><stop stop-opacity="1" stop-color="rgb(92.268372%, 44.358826%, 29.118347%)" offset="0.429687"/><stop stop-opacity="1" stop-color="rgb(92.218018%, 43.888855%, 28.753662%)" offset="0.433594"/><stop stop-opacity="1" stop-color="rgb(92.169189%, 43.42041%, 28.388977%)" offset="0.4375"/><stop stop-opacity="1" stop-color="rgb(92.118835%, 42.950439%, 28.024292%)" offset="0.441406"/><stop stop-opacity="1" stop-color="rgb(92.070007%, 42.481995%, 27.659607%)" offset="0.445312"/><stop stop-opacity="1" stop-color="rgb(92.021179%, 42.012024%, 27.294922%)" offset="0.449219"/><stop stop-opacity="1" stop-color="rgb(91.972351%, 41.542053%, 26.930237%)" offset="0.453125"/><stop stop-opacity="1" stop-color="rgb(91.921997%, 41.072083%, 26.564026%)" offset="0.457031"/><stop stop-opacity="1" stop-color="rgb(91.873169%, 40.603638%, 26.199341%)" offset="0.460937"/><stop stop-opacity="1" stop-color="rgb(91.822815%, 40.133667%, 25.834656%)" offset="0.464844"/><stop stop-opacity="1" stop-color="rgb(91.773987%, 39.665222%, 25.469971%)" offset="0.46875"/><stop stop-opacity="1" stop-color="rgb(91.723633%, 39.195251%, 25.105286%)" offset="0.472656"/><stop stop-opacity="1" stop-color="rgb(91.674805%, 38.725281%, 24.740601%)" offset="0.476562"/><stop stop-opacity="1" stop-color="rgb(91.625977%, 38.25531%, 24.375916%)" offset="0.480469"/><stop stop-opacity="1" stop-color="rgb(91.577148%, 37.786865%, 24.01123%)" offset="0.484375"/><stop stop-opacity="1" stop-color="rgb(91.526794%, 37.316895%, 23.646545%)" offset="0.488281"/><stop stop-opacity="1" stop-color="rgb(91.477966%, 36.84845%, 23.28186%)" offset="0.492187"/><stop stop-opacity="1" stop-color="rgb(91.33606%, 36.445618%, 23.023987%)" offset="0.496094"/><stop stop-opacity="1" stop-color="rgb(91.194153%, 36.044312%, 22.767639%)" offset="0.5"/><stop stop-opacity="1" stop-color="rgb(90.684509%, 35.910034%, 22.938538%)" offset="0.503906"/><stop stop-opacity="1" stop-color="rgb(90.176392%, 35.775757%, 23.109436%)" offset="0.507812"/><stop stop-opacity="1" stop-color="rgb(89.666748%, 35.639954%, 23.280334%)" offset="0.511719"/><stop stop-opacity="1" stop-color="rgb(89.15863%, 35.505676%, 23.451233%)" offset="0.515625"/><stop stop-opacity="1" stop-color="rgb(88.648987%, 35.371399%, 23.622131%)" offset="0.519531"/><stop stop-opacity="1" stop-color="rgb(88.140869%, 35.237122%, 23.79303%)" offset="0.523437"/><stop stop-opacity="1" stop-color="rgb(87.631226%, 35.101318%, 23.962402%)" offset="0.527344"/><stop stop-opacity="1" stop-color="rgb(87.123108%, 34.967041%, 24.133301%)" offset="0.53125"/><stop stop-opacity="1" stop-color="rgb(86.613464%, 34.831238%, 24.304199%)" offset="0.535156"/><stop stop-opacity="1" stop-color="rgb(86.105347%, 34.69696%, 24.475098%)" offset="0.539062"/><stop stop-opacity="1" stop-color="rgb(85.595703%, 34.562683%, 24.645996%)" offset="0.542969"/><stop stop-opacity="1" stop-color="rgb(85.087585%, 34.428406%, 24.816895%)" offset="0.546875"/><stop stop-opacity="1" stop-color="rgb(84.579468%, 34.292603%, 24.987793%)" offset="0.550781"/><stop stop-opacity="1" stop-color="rgb(84.07135%, 34.158325%, 25.158691%)" offset="0.554687"/><stop stop-opacity="1" stop-color="rgb(83.561707%, 34.024048%, 25.328064%)" offset="0.558594"/><stop stop-opacity="1" stop-color="rgb(83.053589%, 33.889771%, 25.498962%)" offset="0.5625"/><stop stop-opacity="1" stop-color="rgb(82.543945%, 33.753967%, 25.669861%)" offset="0.566406"/><stop stop-opacity="1" stop-color="rgb(82.035828%, 33.61969%, 25.840759%)" offset="0.570312"/><stop stop-opacity="1" stop-color="rgb(81.526184%, 33.483887%, 26.011658%)" offset="0.574219"/><stop stop-opacity="1" stop-color="rgb(81.018066%, 33.349609%, 26.182556%)" offset="0.578125"/><stop stop-opacity="1" stop-color="rgb(80.508423%, 33.215332%, 26.353455%)" offset="0.582031"/><stop stop-opacity="1" stop-color="rgb(80.000305%, 33.081055%, 26.524353%)" offset="0.585937"/><stop stop-opacity="1" stop-color="rgb(79.490662%, 32.945251%, 26.693726%)" offset="0.589844"/><stop stop-opacity="1" stop-color="rgb(78.982544%, 32.810974%, 26.864624%)" offset="0.59375"/><stop stop-opacity="1" stop-color="rgb(78.4729%, 32.676697%, 27.035522%)" offset="0.597656"/><stop stop-opacity="1" stop-color="rgb(77.964783%, 32.542419%, 27.206421%)" offset="0.601562"/><stop stop-opacity="1" stop-color="rgb(77.456665%, 32.406616%, 27.377319%)" offset="0.605469"/><stop stop-opacity="1" stop-color="rgb(76.948547%, 32.272339%, 27.548218%)" offset="0.609375"/><stop stop-opacity="1" stop-color="rgb(76.438904%, 32.138062%, 27.719116%)" offset="0.613281"/><stop stop-opacity="1" stop-color="rgb(75.930786%, 32.003784%, 27.890015%)" offset="0.617187"/><stop stop-opacity="1" stop-color="rgb(75.421143%, 31.867981%, 28.059387%)" offset="0.621094"/><stop stop-opacity="1" stop-color="rgb(74.913025%, 31.733704%, 28.230286%)" offset="0.625"/><stop stop-opacity="1" stop-color="rgb(74.403381%, 31.5979%, 28.401184%)" offset="0.628906"/><stop stop-opacity="1" stop-color="rgb(73.895264%, 31.463623%, 28.572083%)" offset="0.632812"/><stop stop-opacity="1" stop-color="rgb(73.38562%, 31.329346%, 28.742981%)" offset="0.636719"/><stop stop-opacity="1" stop-color="rgb(72.877502%, 31.195068%, 28.913879%)" offset="0.640625"/><stop stop-opacity="1" stop-color="rgb(72.367859%, 31.059265%, 29.084778%)" offset="0.644531"/><stop stop-opacity="1" stop-color="rgb(71.859741%, 30.924988%, 29.255676%)" offset="0.648437"/><stop stop-opacity="1" stop-color="rgb(71.351624%, 30.79071%, 29.425049%)" offset="0.652344"/><stop stop-opacity="1" stop-color="rgb(70.843506%, 30.656433%, 29.595947%)" offset="0.65625"/><stop stop-opacity="1" stop-color="rgb(70.333862%, 30.52063%, 29.766846%)" offset="0.660156"/><stop stop-opacity="1" stop-color="rgb(69.825745%, 30.386353%, 29.937744%)" offset="0.664062"/><stop stop-opacity="1" stop-color="rgb(69.316101%, 30.250549%, 30.108643%)" offset="0.667969"/><stop stop-opacity="1" stop-color="rgb(68.807983%, 30.116272%, 30.279541%)" offset="0.671875"/><stop stop-opacity="1" stop-color="rgb(68.29834%, 29.981995%, 30.450439%)" offset="0.675781"/><stop stop-opacity="1" stop-color="rgb(67.790222%, 29.847717%, 30.621338%)" offset="0.679688"/><stop stop-opacity="1" stop-color="rgb(67.280579%, 29.711914%, 30.79071%)" offset="0.683594"/><stop stop-opacity="1" stop-color="rgb(66.772461%, 29.577637%, 30.961609%)" offset="0.6875"/><stop stop-opacity="1" stop-color="rgb(66.262817%, 29.443359%, 31.132507%)" offset="0.691406"/><stop stop-opacity="1" stop-color="rgb(65.7547%, 29.309082%, 31.303406%)" offset="0.695312"/><stop stop-opacity="1" stop-color="rgb(65.245056%, 29.173279%, 31.474304%)" offset="0.699219"/><stop stop-opacity="1" stop-color="rgb(64.736938%, 29.039001%, 31.645203%)" offset="0.703125"/><stop stop-opacity="1" stop-color="rgb(64.228821%, 28.904724%, 31.816101%)" offset="0.707031"/><stop stop-opacity="1" stop-color="rgb(63.720703%, 28.770447%, 31.987%)" offset="0.710938"/><stop stop-opacity="1" stop-color="rgb(63.21106%, 28.634644%, 32.156372%)" offset="0.714844"/><stop stop-opacity="1" stop-color="rgb(62.702942%, 28.500366%, 32.327271%)" offset="0.71875"/><stop stop-opacity="1" stop-color="rgb(62.193298%, 28.364563%, 32.498169%)" offset="0.722656"/><stop stop-opacity="1" stop-color="rgb(61.685181%, 28.230286%, 32.669067%)" offset="0.726562"/><stop stop-opacity="1" stop-color="rgb(61.175537%, 28.096008%, 32.839966%)" offset="0.730469"/><stop stop-opacity="1" stop-color="rgb(60.667419%, 27.961731%, 33.010864%)" offset="0.734375"/><stop stop-opacity="1" stop-color="rgb(60.157776%, 27.825928%, 33.181763%)" offset="0.738281"/><stop stop-opacity="1" stop-color="rgb(59.649658%, 27.69165%, 33.352661%)" offset="0.742188"/><stop stop-opacity="1" stop-color="rgb(59.140015%, 27.557373%, 33.522034%)" offset="0.746094"/><stop stop-opacity="1" stop-color="rgb(58.631897%, 27.423096%, 33.692932%)" offset="0.75"/><stop stop-opacity="1" stop-color="rgb(58.122253%, 27.287292%, 33.863831%)" offset="0.753906"/><stop stop-opacity="1" stop-color="rgb(57.614136%, 27.153015%, 34.034729%)" offset="0.757812"/><stop stop-opacity="1" stop-color="rgb(57.106018%, 27.017212%, 34.205627%)" offset="0.761719"/><stop stop-opacity="1" stop-color="rgb(56.5979%, 26.882935%, 34.376526%)" offset="0.765625"/><stop stop-opacity="1" stop-color="rgb(56.088257%, 26.748657%, 34.547424%)" offset="0.769531"/><stop stop-opacity="1" stop-color="rgb(55.580139%, 26.61438%, 34.718323%)" offset="0.773438"/><stop stop-opacity="1" stop-color="rgb(55.070496%, 26.478577%, 34.887695%)" offset="0.777344"/><stop stop-opacity="1" stop-color="rgb(54.562378%, 26.344299%, 35.058594%)" offset="0.78125"/><stop stop-opacity="1" stop-color="rgb(54.052734%, 26.210022%, 35.229492%)" offset="0.785156"/><stop stop-opacity="1" stop-color="rgb(53.544617%, 26.075745%, 35.400391%)" offset="0.789062"/><stop stop-opacity="1" stop-color="rgb(53.034973%, 25.939941%, 35.571289%)" offset="0.792969"/><stop stop-opacity="1" stop-color="rgb(52.526855%, 25.805664%, 35.742188%)" offset="0.796875"/><stop stop-opacity="1" stop-color="rgb(52.017212%, 25.671387%, 35.913086%)" offset="0.800781"/><stop stop-opacity="1" stop-color="rgb(51.509094%, 25.537109%, 36.083984%)" offset="0.804688"/><stop stop-opacity="1" stop-color="rgb(50.999451%, 25.401306%, 36.253357%)" offset="0.808594"/><stop stop-opacity="1" stop-color="rgb(50.491333%, 25.267029%, 36.424255%)" offset="0.8125"/><stop stop-opacity="1" stop-color="rgb(49.983215%, 25.131226%, 36.595154%)" offset="0.816406"/><stop stop-opacity="1" stop-color="rgb(49.475098%, 24.996948%, 36.766052%)" offset="0.820312"/><stop stop-opacity="1" stop-color="rgb(48.965454%, 24.862671%, 36.936951%)" offset="0.824219"/><stop stop-opacity="1" stop-color="rgb(48.457336%, 24.728394%, 37.107849%)" offset="0.828125"/><stop stop-opacity="1" stop-color="rgb(47.947693%, 24.59259%, 37.278748%)" offset="0.832031"/><stop stop-opacity="1" stop-color="rgb(47.439575%, 24.458313%, 37.449646%)" offset="0.835938"/><stop stop-opacity="1" stop-color="rgb(46.929932%, 24.324036%, 37.619019%)" offset="0.839844"/><stop stop-opacity="1" stop-color="rgb(46.421814%, 24.189758%, 37.789917%)" offset="0.84375"/><stop stop-opacity="1" stop-color="rgb(45.91217%, 24.053955%, 37.960815%)" offset="0.847656"/><stop stop-opacity="1" stop-color="rgb(45.404053%, 23.919678%, 38.131714%)" offset="0.851562"/><stop stop-opacity="1" stop-color="rgb(44.894409%, 23.783875%, 38.302612%)" offset="0.855469"/><stop stop-opacity="1" stop-color="rgb(44.386292%, 23.649597%, 38.473511%)" offset="0.859375"/><stop stop-opacity="1" stop-color="rgb(43.876648%, 23.51532%, 38.644409%)" offset="0.863281"/><stop stop-opacity="1" stop-color="rgb(43.36853%, 23.381042%, 38.815308%)" offset="0.867187"/><stop stop-opacity="1" stop-color="rgb(42.860413%, 23.245239%, 38.98468%)" offset="0.871094"/><stop stop-opacity="1" stop-color="rgb(42.352295%, 23.110962%, 39.155579%)" offset="0.875"/><stop stop-opacity="1" stop-color="rgb(41.842651%, 22.976685%, 39.326477%)" offset="0.878906"/><stop stop-opacity="1" stop-color="rgb(41.334534%, 22.842407%, 39.497375%)" offset="0.882812"/><stop stop-opacity="1" stop-color="rgb(40.82489%, 22.706604%, 39.668274%)" offset="0.886719"/><stop stop-opacity="1" stop-color="rgb(40.316772%, 22.572327%, 39.839172%)" offset="0.890625"/><stop stop-opacity="1" stop-color="rgb(39.807129%, 22.436523%, 40.008545%)" offset="0.894531"/><stop stop-opacity="1" stop-color="rgb(39.299011%, 22.302246%, 40.179443%)" offset="0.898437"/><stop stop-opacity="1" stop-color="rgb(38.789368%, 22.167969%, 40.350342%)" offset="0.902344"/><stop stop-opacity="1" stop-color="rgb(38.28125%, 22.033691%, 40.52124%)" offset="0.90625"/><stop stop-opacity="1" stop-color="rgb(37.771606%, 21.897888%, 40.692139%)" offset="0.910156"/><stop stop-opacity="1" stop-color="rgb(37.263489%, 21.763611%, 40.863037%)" offset="0.914062"/><stop stop-opacity="1" stop-color="rgb(36.755371%, 21.629333%, 41.033936%)" offset="0.917969"/><stop stop-opacity="1" stop-color="rgb(36.247253%, 21.495056%, 41.204834%)" offset="0.921875"/><stop stop-opacity="1" stop-color="rgb(35.73761%, 21.359253%, 41.374207%)" offset="0.925781"/><stop stop-opacity="1" stop-color="rgb(35.229492%, 21.224976%, 41.545105%)" offset="0.929687"/><stop stop-opacity="1" stop-color="rgb(34.719849%, 21.090698%, 41.716003%)" offset="0.933594"/><stop stop-opacity="1" stop-color="rgb(34.211731%, 20.956421%, 41.886902%)" offset="0.9375"/><stop stop-opacity="1" stop-color="rgb(33.702087%, 20.820618%, 42.0578%)" offset="0.941406"/><stop stop-opacity="1" stop-color="rgb(33.19397%, 20.68634%, 42.228699%)" offset="0.945312"/><stop stop-opacity="1" stop-color="rgb(32.684326%, 20.550537%, 42.399597%)" offset="0.949219"/><stop stop-opacity="1" stop-color="rgb(32.176208%, 20.41626%, 42.570496%)" offset="0.953125"/><stop stop-opacity="1" stop-color="rgb(31.666565%, 20.281982%, 42.739868%)" offset="0.957031"/><stop stop-opacity="1" stop-color="rgb(31.158447%, 20.147705%, 42.910767%)" offset="0.960938"/><stop stop-opacity="1" stop-color="rgb(30.879211%, 20.072937%, 43.005371%)" offset="0.964844"/><stop stop-opacity="1" stop-color="rgb(30.599976%, 19.999695%, 43.099976%)" offset="0.96875"/><stop stop-opacity="1" stop-color="rgb(30.599976%, 19.999695%, 43.099976%)" offset="1"/></linearGradient></defs><g clip-path="url(#fab6530de7)"><g clip-path="url(#b686286a29)"><path fill="url(#0aa1fd2032)" d="M 2.929688 375 L 2.929688 0 L 374.460938 0 L 374.460938 375 Z M 2.929688 375 " fill-rule="nonzero"/></g></g></svg>